<svg width="1443" height="429" viewBox="0 0 1443 429" fill="none" xmlns="http://www.w3.org/2000/svg">
<g clip-path="url(#clip0_270_4161)">
<path d="M0 0H784L660 429H0V0Z" fill="#00963F"/>
<mask id="mask0_270_4161" style="mask-type:alpha" maskUnits="userSpaceOnUse" x="0" y="0" width="784" height="429">
<path d="M0 0H784L660 429H0V0Z" fill="#00963F"/>
</mask>
<g mask="url(#mask0_270_4161)">
<g opacity="0.05">
<path d="M223.861 -320.871L178.107 -284.322L169.331 -226.423L123.577 -189.873L114.801 -131.974L69.0467 -95.4243L60.2711 -37.5249L14.5117 -0.966979L5.73614 56.9323L-40.0232 93.4903L-48.7988 151.39L-94.5533 187.939L-103.334 245.847L-149.088 282.396L-157.869 340.304L-203.628 376.862" stroke="white" stroke-width="2" stroke-miterlimit="10"/>
<path d="M438.084 -197.19L392.329 -160.64L383.554 -102.741L337.799 -66.1915L329.024 -8.29214L283.269 28.2574L274.494 86.1567L228.734 122.715L219.959 180.614L174.199 217.172L165.424 275.071L119.669 311.621L110.889 369.529L65.1344 406.078L56.354 463.986L10.5946 500.544" stroke="white" stroke-width="2" stroke-miterlimit="10"/>
<path d="M723.715 -32.2812L677.96 4.26837L669.184 62.1677L623.43 98.7172L614.654 156.617L568.9 193.166L560.124 251.065L514.365 287.623L505.589 345.523L459.83 382.081L451.054 439.98L405.3 476.53L396.52 534.437L350.765 570.987L341.985 628.895L296.225 665.452" stroke="white" stroke-width="2" stroke-miterlimit="10"/>
<path d="M280.959 -287.906L235.204 -251.357L226.429 -193.457L180.674 -156.908L171.899 -99.0084L126.144 -62.4589L117.369 -4.55961L71.6094 31.9984L62.8338 89.8977L17.0744 126.456L8.29886 184.355L-37.4557 220.905L-46.2361 278.812L-91.9906 315.362L-100.771 373.27L-146.53 409.827" stroke="white" stroke-width="2" stroke-miterlimit="10"/>
<path d="M495.182 -164.225L449.427 -127.675L440.652 -69.7757L394.897 -33.2261L386.122 24.6732L340.367 61.2227L331.592 119.122L285.832 155.68L277.057 213.579L231.297 250.137L222.522 308.037L176.767 344.586L167.987 402.494L122.232 439.043L113.452 496.951L67.6925 533.509" stroke="white" stroke-width="2" stroke-miterlimit="10"/>
<path d="M780.812 0.684173L735.058 37.2337L726.282 95.133L680.528 131.683L671.752 189.582L625.998 226.131L617.222 284.031L571.463 320.589L562.687 378.488L516.928 415.046L508.152 472.945L462.398 509.495L453.617 567.403L407.863 603.952L399.082 661.86L353.323 698.418" stroke="white" stroke-width="2" stroke-miterlimit="10"/>
<path d="M337.986 -254.981L292.232 -218.432L283.456 -160.533L237.701 -123.983L228.926 -66.0836L183.171 -29.5341L174.396 28.3652L128.636 64.9232L119.861 122.822L74.1015 159.38L65.326 217.28L19.5714 253.829L10.791 311.737L-34.9635 348.287L-43.7439 406.194L-89.5033 442.752" stroke="white" stroke-width="2" stroke-miterlimit="10"/>
<path d="M552.208 -131.3L506.454 -94.7507L497.678 -36.8514L451.924 -0.301812L443.148 57.5975L397.394 94.147L388.618 152.046L342.859 188.604L334.083 246.504L288.324 283.062L279.548 340.961L233.794 377.51L225.013 435.418L179.259 471.968L170.478 529.875L124.719 566.433" stroke="white" stroke-width="2" stroke-miterlimit="10"/>
<path d="M837.839 33.6085L792.084 70.158L783.309 128.057L737.554 164.607L728.779 222.506L683.024 259.056L674.249 316.955L628.489 353.513L619.714 411.412L573.954 447.97L565.179 505.87L519.424 542.419L510.644 600.327L464.889 636.876L456.109 694.784L410.35 731.342" stroke="white" stroke-width="2" stroke-miterlimit="10"/>
<path d="M395.225 -221.934L349.471 -185.385L340.695 -127.486L294.941 -90.9361L286.165 -33.0368L240.411 3.51275L231.635 61.4121L185.876 97.97L177.1 155.869L131.341 192.427L122.565 250.327L76.8107 286.876L68.0303 344.784L22.2758 381.333L13.4953 439.241L-32.264 475.799" stroke="white" stroke-width="2" stroke-miterlimit="10"/>
<path d="M680.856 -57.0258L635.101 -20.4763L626.326 37.4231L580.571 73.9726L571.796 131.872L526.041 168.421L517.265 226.321L471.506 262.879L462.731 320.778L416.971 357.336L408.196 415.235L362.441 451.785L353.661 509.693L307.906 546.242L299.126 604.15L253.366 640.708" stroke="white" stroke-width="2" stroke-miterlimit="10"/>
<path d="M609.448 -98.2528L563.694 -61.7033L554.918 -3.80399L509.164 32.7456L500.388 90.6449L454.634 127.194L445.858 185.094L400.099 221.652L391.323 279.551L345.564 316.109L336.788 374.008L291.034 410.558L282.253 468.466L236.499 505.015L227.718 562.923L181.959 599.481" stroke="white" stroke-width="2" stroke-miterlimit="10"/>
<path d="M895.078 66.6559L849.324 103.205L840.548 161.105L794.794 197.654L786.018 255.554L740.264 292.103L731.488 350.002L685.729 386.56L676.953 444.46L631.194 481.018L622.418 538.917L576.664 575.467L567.883 633.374L522.129 669.924L513.348 727.832L467.589 764.389" stroke="white" stroke-width="2" stroke-miterlimit="10"/>
<path d="M252.41 -304.389L206.656 -267.839L197.88 -209.94L152.126 -173.39L143.35 -115.491L97.5955 -78.9414L88.8199 -21.042L43.0605 15.5159L34.285 73.4153L-11.4744 109.973L-20.25 167.873L-66.0045 204.422L-74.7849 262.33L-120.539 298.879L-129.32 356.787L-175.079 393.345" stroke="white" stroke-width="2" stroke-miterlimit="10"/>
<path d="M466.633 -180.707L420.878 -144.158L412.103 -86.2586L366.348 -49.709L357.573 8.19028L311.818 44.7398L303.043 102.639L257.283 139.197L248.508 197.096L202.748 233.654L193.973 291.554L148.218 328.103L139.438 386.011L93.6833 422.56L84.9028 480.468L39.1435 517.026" stroke="white" stroke-width="2" stroke-miterlimit="10"/>
<path d="M752.264 -15.7982L706.509 20.7513L697.734 78.6506L651.979 115.2L643.203 173.099L597.449 209.649L588.673 267.548L542.914 304.106L534.138 362.006L488.379 398.564L479.604 456.463L433.849 493.012L425.069 550.92L379.314 587.47L370.534 645.377L324.774 681.935" stroke="white" stroke-width="2" stroke-miterlimit="10"/>
<path d="M309.437 -271.464L263.683 -234.915L254.907 -177.015L209.153 -140.466L200.377 -82.5666L154.623 -46.017L145.847 11.8823L100.088 48.4402L91.3121 106.34L45.5527 142.898L36.7771 200.797L-8.97738 237.346L-17.7578 295.254L-63.5123 331.804L-72.2928 389.711L-118.052 426.269" stroke="white" stroke-width="2" stroke-miterlimit="10"/>
<path d="M523.66 -147.783L477.905 -111.233L469.13 -53.3338L423.375 -16.7842L414.6 41.1151L368.845 77.6646L360.07 135.564L314.31 172.122L305.535 230.021L259.775 266.579L251 324.478L205.245 361.028L196.465 418.936L150.71 455.485L141.93 513.393L96.1706 549.951" stroke="white" stroke-width="2" stroke-miterlimit="10"/>
<path d="M809.29 17.1261L763.536 53.6756L754.76 111.575L709.006 148.124L700.23 206.024L654.476 242.573L645.7 300.473L599.941 337.031L591.165 394.93L545.406 431.488L536.63 489.387L490.876 525.937L482.095 583.844L436.341 620.394L427.56 678.302L381.801 714.86" stroke="white" stroke-width="2" stroke-miterlimit="10"/>
<path d="M366.606 -238.458L320.851 -201.908L312.076 -144.009L266.321 -107.46L257.546 -49.5602L211.791 -13.0107L203.015 44.8886L157.256 81.4466L148.481 139.346L102.721 175.904L93.9456 233.803L48.1911 270.353L39.4106 328.26L-6.34384 364.81L-15.1243 422.718L-60.8836 459.276" stroke="white" stroke-width="2" stroke-miterlimit="10"/>
<path d="M652.236 -73.5492L606.481 -36.9997L597.706 20.8996L551.951 57.4492L543.176 115.348L497.421 151.898L488.646 209.797L442.886 246.355L434.111 304.255L388.351 340.813L379.576 398.712L333.821 435.261L325.041 493.169L279.286 529.719L270.506 587.626L224.746 624.184" stroke="white" stroke-width="2" stroke-miterlimit="10"/>
<path d="M580.828 -114.777L535.074 -78.2272L526.298 -20.3279L480.544 16.2216L471.768 74.1209L426.014 110.67L417.238 168.57L371.479 205.128L362.703 263.027L316.944 299.585L308.168 357.484L262.414 394.034L253.633 451.942L207.879 488.491L199.098 546.399L153.339 582.957" stroke="white" stroke-width="2" stroke-miterlimit="10"/>
<path d="M866.459 50.1324L820.704 86.6819L811.929 144.581L766.174 181.131L757.399 239.03L711.644 275.58L702.868 333.479L657.109 370.037L648.334 427.936L602.574 464.494L593.799 522.394L548.044 558.943L539.264 616.851L493.509 653.4L484.729 711.308L438.969 747.866" stroke="white" stroke-width="2" stroke-miterlimit="10"/>
<path d="M423.774 -205.452L378.02 -168.902L369.244 -111.003L323.49 -74.4532L314.714 -16.5539L268.96 19.9957L260.184 77.895L214.425 114.453L205.649 172.352L159.89 208.91L151.114 266.81L105.36 303.359L96.5793 361.267L50.8249 397.816L42.0444 455.724L-3.71495 492.282" stroke="white" stroke-width="2" stroke-miterlimit="10"/>
<path d="M709.405 -40.5429L663.65 -3.99335L654.874 53.906L609.12 90.4555L600.344 148.355L554.59 184.904L545.814 242.804L500.055 279.362L491.279 337.261L445.52 373.819L436.744 431.718L390.99 468.268L382.209 526.176L336.455 562.725L327.675 620.633L281.915 657.191" stroke="white" stroke-width="2" stroke-miterlimit="10"/>
<path d="M637.997 -81.7699L592.243 -45.2204L583.467 12.6789L537.712 49.2285L528.937 107.128L483.182 143.677L474.407 201.577L428.647 238.135L419.872 296.034L374.113 332.592L365.337 390.491L319.582 427.041L310.802 484.948L265.048 521.498L256.267 579.406L210.508 615.964" stroke="white" stroke-width="2" stroke-miterlimit="10"/>
<path d="M923.627 83.1388L877.873 119.688L869.097 177.588L823.343 214.137L814.567 272.036L768.813 308.586L760.037 366.485L714.278 403.043L705.502 460.943L659.743 497.501L650.967 555.4L605.213 591.949L596.432 649.857L550.678 686.407L541.897 744.314L496.138 780.872" stroke="white" stroke-width="2" stroke-miterlimit="10"/>
<path d="M238.171 -312.61L192.417 -276.06L183.641 -218.161L137.887 -181.611L129.111 -123.712L83.3567 -87.1625L74.5811 -29.2632L28.8218 7.29474L20.0462 65.1941L-25.7132 101.752L-34.4887 159.651L-80.2433 196.201L-89.0237 254.109L-134.778 290.658L-143.559 348.566L-189.318 385.124" stroke="white" stroke-width="2" stroke-miterlimit="10"/>
<path d="M452.394 -188.928L406.639 -152.379L397.864 -94.4793L352.109 -57.9297L343.334 -0.0304208L297.579 36.5191L288.804 94.4184L243.044 130.976L234.269 188.876L188.509 225.434L179.734 283.333L133.979 319.883L125.199 377.79L79.4442 414.34L70.6638 472.248L24.9044 508.805" stroke="white" stroke-width="2" stroke-miterlimit="10"/>
<path d="M738.024 -24.0194L692.27 12.5301L683.494 70.4294L637.74 106.979L628.964 164.878L583.209 201.428L574.434 259.327L528.675 295.885L519.899 353.784L474.14 390.342L465.364 448.242L419.61 484.791L410.829 542.699L365.075 579.248L356.294 637.156L310.535 673.714" stroke="white" stroke-width="2" stroke-miterlimit="10"/>
<path d="M295.198 -279.685L249.443 -243.135L240.668 -185.236L194.913 -148.687L186.138 -90.7873L140.383 -54.2377L131.608 3.66158L85.8484 40.2195L77.0728 98.1189L31.3134 134.677L22.5379 192.576L-23.2166 229.126L-31.9971 287.033L-77.7516 323.583L-86.532 381.491L-132.291 418.049" stroke="white" stroke-width="2" stroke-miterlimit="10"/>
<path d="M509.421 -156.004L463.666 -119.454L454.891 -61.555L409.136 -25.0054L400.36 32.8939L354.606 69.4434L345.83 127.343L300.071 163.901L291.295 221.8L245.536 258.358L236.761 316.257L191.006 352.807L182.226 410.715L136.471 447.264L127.691 505.172L81.9313 541.73" stroke="white" stroke-width="2" stroke-miterlimit="10"/>
<path d="M795.051 8.90488L749.296 45.4544L740.521 103.354L694.766 139.903L685.991 197.803L640.236 234.352L631.461 292.251L585.701 328.809L576.926 386.709L531.166 423.267L522.391 481.166L476.636 517.716L467.856 575.623L422.101 612.173L413.321 670.081L367.562 706.639" stroke="white" stroke-width="2" stroke-miterlimit="10"/>
<path d="M352.296 -246.72L306.541 -210.17L297.766 -152.271L252.011 -115.721L243.235 -57.8219L197.481 -21.2724L188.705 36.6269L142.946 73.1849L134.17 131.084L88.4111 167.642L79.6355 225.541L33.881 262.091L25.1006 319.999L-20.6539 356.548L-29.4344 414.456L-75.1937 451.014" stroke="white" stroke-width="2" stroke-miterlimit="10"/>
<path d="M566.519 -123.038L520.764 -86.489L511.989 -28.5896L466.234 7.95991L457.459 65.8592L411.704 102.409L402.929 160.308L357.169 196.866L348.394 254.765L302.634 291.323L293.859 349.223L248.104 385.772L239.324 443.68L193.569 480.229L184.789 538.137L139.029 574.695" stroke="white" stroke-width="2" stroke-miterlimit="10"/>
<path d="M852.149 41.8702L806.394 78.4197L797.619 136.319L751.864 172.869L743.088 230.768L697.334 267.317L688.558 325.217L642.799 361.775L634.023 419.674L588.264 456.232L579.489 514.131L533.734 550.681L524.954 608.589L479.199 645.138L470.419 703.046L424.659 739.604" stroke="white" stroke-width="2" stroke-miterlimit="10"/>
<path d="M409.535 -213.673L363.781 -177.123L355.005 -119.224L309.251 -82.6744L300.475 -24.775L254.72 11.7745L245.945 69.6738L200.186 106.232L191.41 164.131L145.651 200.689L136.875 258.588L91.1205 295.138L82.3401 353.046L36.5856 389.595L27.8051 447.503L-17.9542 484.061" stroke="white" stroke-width="2" stroke-miterlimit="10"/>
<path d="M695.166 -48.7641L649.411 -12.2145L640.636 45.6848L594.881 82.2343L586.106 140.134L540.351 176.683L531.576 234.582L485.816 271.14L477.041 329.04L431.281 365.598L422.506 423.497L376.751 460.047L367.971 517.954L322.216 554.504L313.436 612.412L267.676 648.97" stroke="white" stroke-width="2" stroke-miterlimit="10"/>
<path d="M623.758 -89.9911L578.003 -53.4416L569.228 4.45773L523.473 41.0073L514.698 98.9066L468.943 135.456L460.168 193.355L414.408 229.913L405.633 287.813L359.873 324.371L351.098 382.27L305.343 418.82L296.563 476.727L250.808 513.277L242.028 571.185L196.268 607.743" stroke="white" stroke-width="2" stroke-miterlimit="10"/>
<path d="M909.388 74.9176L863.634 111.467L854.858 169.366L809.104 205.916L800.328 263.815L754.574 300.365L745.798 358.264L700.039 394.822L691.263 452.721L645.504 489.279L636.728 547.179L590.974 583.728L582.193 641.636L536.439 678.185L527.658 736.093L481.899 772.651" stroke="white" stroke-width="2" stroke-miterlimit="10"/>
<path d="M266.649 -296.168L220.895 -259.618L212.119 -201.719L166.365 -165.169L157.589 -107.27L111.834 -70.7207L103.059 -12.8213L57.2996 23.7366L48.524 81.636L2.76461 118.194L-6.01096 176.093L-51.7655 212.643L-60.5459 270.551L-106.3 307.1L-115.081 365.008L-160.84 401.566" stroke="white" stroke-width="2" stroke-miterlimit="10"/>
<path d="M480.872 -172.486L435.118 -135.937L426.342 -78.0374L380.588 -41.4878L371.812 16.4115L326.058 52.961L317.282 110.86L271.523 147.418L262.747 205.318L216.988 241.876L208.212 299.775L162.458 336.324L153.677 394.232L107.923 430.782L99.1423 488.689L53.383 525.247" stroke="white" stroke-width="2" stroke-miterlimit="10"/>
<path d="M766.502 -7.57755L720.748 28.972L711.972 86.8713L666.218 123.421L657.442 181.32L611.688 217.87L602.912 275.769L557.153 312.327L548.377 370.226L502.618 406.784L493.842 464.684L448.088 501.233L439.307 559.141L393.553 595.69L384.772 653.598L339.013 690.156" stroke="white" stroke-width="2" stroke-miterlimit="10"/>
<path d="M323.747 -263.203L277.992 -226.653L269.217 -168.754L223.462 -132.204L214.687 -74.3048L168.932 -37.7553L160.157 20.144L114.397 56.702L105.622 114.601L59.8623 151.159L51.0867 209.059L5.33219 245.608L-3.44824 303.516L-49.2027 340.065L-57.9832 397.973L-103.743 434.531" stroke="white" stroke-width="2" stroke-miterlimit="10"/>
<path d="M537.969 -139.521L492.215 -102.971L483.439 -45.0721L437.685 -8.52251L428.909 49.3768L383.155 85.9263L374.379 143.826L328.62 180.384L319.844 238.283L274.085 274.841L265.309 332.74L219.555 369.29L210.774 427.197L165.02 463.747L156.239 521.655L110.48 558.213" stroke="white" stroke-width="2" stroke-miterlimit="10"/>
<path d="M823.6 25.3878L777.845 61.9373L769.07 119.837L723.315 156.386L714.54 214.285L668.785 250.835L660.01 308.734L614.25 345.292L605.475 403.192L559.715 439.75L550.94 497.649L505.185 534.198L496.405 592.106L450.65 628.656L441.87 686.563L396.11 723.121" stroke="white" stroke-width="2" stroke-miterlimit="10"/>
<path d="M380.915 -230.196L335.161 -193.647L326.385 -135.747L280.631 -99.1978L271.855 -41.2985L226.101 -4.74897L217.325 53.1503L171.566 89.7083L162.79 147.608L117.031 184.166L108.255 242.065L62.5009 278.614L53.7205 336.522L7.96598 373.072L-0.814481 430.979L-46.5738 467.537" stroke="white" stroke-width="2" stroke-miterlimit="10"/>
<path d="M666.546 -65.2875L620.792 -28.738L612.016 29.1613L566.262 65.7109L557.486 123.61L511.731 160.16L502.956 218.059L457.197 254.617L448.421 312.516L402.662 349.074L393.886 406.974L348.132 443.523L339.351 501.431L293.597 537.98L284.816 595.888L239.057 632.446" stroke="white" stroke-width="2" stroke-miterlimit="10"/>
<path d="M595.138 -106.515L549.384 -69.965L540.608 -12.0657L494.854 24.4838L486.078 82.3832L440.324 118.933L431.548 176.832L385.789 213.39L377.013 271.289L331.254 307.847L322.478 365.747L276.724 402.296L267.943 460.204L222.189 496.753L213.408 554.661L167.649 591.219" stroke="white" stroke-width="2" stroke-miterlimit="10"/>
<path d="M880.768 58.3941L835.014 94.9437L826.238 152.843L780.484 189.393L771.708 247.292L725.954 283.841L717.178 341.741L671.419 378.299L662.643 436.198L616.884 472.756L608.108 530.655L562.354 567.205L553.573 625.113L507.819 661.662L499.038 719.57L453.279 756.128" stroke="white" stroke-width="2" stroke-miterlimit="10"/>
</g>
</g>
<path d="M1443 429H659L783 0H1443V429Z" fill="#058CB6"/>
<mask id="mask1_270_4161" style="mask-type:alpha" maskUnits="userSpaceOnUse" x="659" y="0" width="784" height="429">
<path d="M1443 429H659L783 0H1443V429Z" fill="#058CB6"/>
</mask>
<g mask="url(#mask1_270_4161)">
<g opacity="0.05">
<path d="M1821.72 284.809L1593.63 -41.6506C1507.36 -165.112 1386.17 -259.989 1245.61 -314.107L873.788 -457.285" stroke="white" stroke-width="2" stroke-miterlimit="10" stroke-linecap="round"/>
<path d="M1805.51 305.509L1577.42 -20.9509C1491.15 -144.413 1369.96 -239.289 1229.41 -293.408L857.582 -436.585" stroke="white" stroke-width="2" stroke-miterlimit="10" stroke-linecap="round"/>
<path d="M1789.31 326.208L1561.21 -0.251693C1474.95 -123.713 1353.76 -218.59 1213.2 -272.708L841.377 -415.886" stroke="white" stroke-width="2" stroke-miterlimit="10" stroke-linecap="round"/>
<path d="M1773.1 346.907L1545.01 20.448C1458.74 -103.014 1337.55 -197.891 1197 -252.009L825.171 -395.187" stroke="white" stroke-width="2" stroke-miterlimit="10" stroke-linecap="round"/>
<path d="M1757.8 366.457L1529.7 39.9973C1443.44 -83.4643 1322.25 -178.341 1181.69 -232.459L809.884 -375.66" stroke="white" stroke-width="2" stroke-miterlimit="10" stroke-linecap="round"/>
<path d="M1741.59 387.157L1513.5 60.6975C1427.23 -62.7641 1306.04 -157.641 1165.49 -211.759L793.679 -354.96" stroke="white" stroke-width="2" stroke-miterlimit="10" stroke-linecap="round"/>
<path d="M1725.39 407.856L1497.29 81.3967C1411.02 -42.0649 1289.84 -136.942 1149.28 -191.06L777.473 -334.261" stroke="white" stroke-width="2" stroke-miterlimit="10" stroke-linecap="round"/>
<path d="M1709.18 428.556L1481.09 102.096C1394.82 -21.3652 1273.63 -116.242 1133.08 -170.36L761.267 -313.561" stroke="white" stroke-width="2" stroke-miterlimit="10" stroke-linecap="round"/>
<path d="M1693.88 448.106L1465.78 121.646C1379.51 -1.8154 1258.33 -96.6923 1117.77 -150.81L745.962 -294.011" stroke="white" stroke-width="2" stroke-miterlimit="10" stroke-linecap="round"/>
<path d="M1677.67 468.805L1449.58 142.345C1363.31 18.8838 1242.12 -75.9931 1101.56 -130.111L729.757 -273.312" stroke="white" stroke-width="2" stroke-miterlimit="10" stroke-linecap="round"/>
<path d="M1661.46 489.505L1433.37 163.046C1347.1 39.584 1225.91 -55.2929 1085.36 -109.411L713.551 -252.612" stroke="white" stroke-width="2" stroke-miterlimit="10" stroke-linecap="round"/>
<path d="M1645.26 510.205L1417.16 183.745C1330.9 60.2837 1209.71 -34.5932 1069.15 -88.7112L697.345 -231.912" stroke="white" stroke-width="2" stroke-miterlimit="10" stroke-linecap="round"/>
<path d="M1629.95 529.754L1401.86 203.295C1315.59 79.833 1194.4 -15.0439 1053.85 -69.1619L682.04 -212.363" stroke="white" stroke-width="2" stroke-miterlimit="10" stroke-linecap="round"/>
<path d="M1613.75 550.454L1385.65 223.994C1299.39 100.533 1178.2 5.65585 1037.64 -48.4622L665.834 -191.663" stroke="white" stroke-width="2" stroke-miterlimit="10" stroke-linecap="round"/>
<path d="M1597.54 571.154L1369.45 244.694C1283.18 121.232 1161.99 26.3556 1021.44 -27.7625L649.628 -170.963" stroke="white" stroke-width="2" stroke-miterlimit="10" stroke-linecap="round"/>
<path d="M1581.34 591.853L1353.24 265.393C1266.97 141.932 1145.79 47.0548 1005.23 -7.06327L633.405 -150.241" stroke="white" stroke-width="2" stroke-miterlimit="10" stroke-linecap="round"/>
<path d="M1565.13 612.552L1337.04 286.093C1250.77 162.631 1129.58 67.754 989.025 13.6359L617.199 -129.542" stroke="white" stroke-width="2" stroke-miterlimit="10" stroke-linecap="round"/>
<path d="M1548.93 633.252L1320.83 306.793C1234.56 183.331 1113.38 88.4542 972.82 34.3361L600.994 -108.842" stroke="white" stroke-width="2" stroke-miterlimit="10" stroke-linecap="round"/>
<path d="M1532.72 653.951L1304.63 327.492C1218.36 204.03 1097.17 109.153 956.614 55.0354L584.788 -88.1425" stroke="white" stroke-width="2" stroke-miterlimit="10" stroke-linecap="round"/>
<path d="M1516.51 674.651L1288.42 348.191C1202.15 224.73 1080.97 129.853 940.408 75.7346L568.583 -67.4433" stroke="white" stroke-width="2" stroke-miterlimit="10" stroke-linecap="round"/>
<path d="M1501.21 694.2L1273.11 367.741C1186.85 244.279 1065.66 149.402 925.103 95.2844L553.277 -47.8935" stroke="white" stroke-width="2" stroke-miterlimit="10" stroke-linecap="round"/>
<path d="M1485 714.9L1256.91 388.44C1170.64 264.979 1049.45 170.102 908.897 115.984L537.071 -27.1943" stroke="white" stroke-width="2" stroke-miterlimit="10" stroke-linecap="round"/>
<path d="M1468.8 735.6L1240.7 409.14C1154.44 285.679 1033.25 190.802 892.691 136.684L520.865 -6.49411" stroke="white" stroke-width="2" stroke-miterlimit="10" stroke-linecap="round"/>
<path d="M1452.59 756.3L1224.5 429.841C1138.23 306.379 1017.04 211.502 876.486 157.384L504.66 14.2061" stroke="white" stroke-width="2" stroke-miterlimit="10" stroke-linecap="round"/>
<path d="M1437.29 775.849L1209.19 449.389C1122.92 325.928 1001.74 231.051 861.181 176.933L489.355 33.7549" stroke="white" stroke-width="2" stroke-miterlimit="10" stroke-linecap="round"/>
<path d="M1421.08 796.549L1192.99 470.09C1106.72 346.628 985.532 251.751 844.975 197.633L473.149 54.4551" stroke="white" stroke-width="2" stroke-miterlimit="10" stroke-linecap="round"/>
<path d="M1404.88 817.248L1176.78 490.789C1090.51 367.327 969.326 272.45 828.769 218.332L456.944 75.1543" stroke="white" stroke-width="2" stroke-miterlimit="10" stroke-linecap="round"/>
<path d="M1388.67 837.948L1160.58 511.488C1074.31 388.026 953.12 293.149 812.564 239.031L440.738 95.8535" stroke="white" stroke-width="2" stroke-miterlimit="10" stroke-linecap="round"/>
<path d="M1373.36 857.497L1145.27 531.038C1059 407.576 937.815 312.699 797.258 258.581L425.433 115.403" stroke="white" stroke-width="2" stroke-miterlimit="10" stroke-linecap="round"/>
<path d="M1357.16 878.198L1129.06 551.738C1042.8 428.276 921.609 333.399 781.053 279.281L409.227 136.104" stroke="white" stroke-width="2" stroke-miterlimit="10" stroke-linecap="round"/>
<path d="M1340.95 898.897L1112.86 572.437C1026.59 448.976 905.404 354.099 764.847 299.981L393.021 156.803" stroke="white" stroke-width="2" stroke-miterlimit="10" stroke-linecap="round"/>
<path d="M1324.75 919.597L1096.65 593.137C1010.39 469.676 889.198 374.799 748.641 320.681L376.816 177.503" stroke="white" stroke-width="2" stroke-miterlimit="10" stroke-linecap="round"/>
<path d="M1312.39 937.747L1084.3 611.288C998.031 487.826 876.843 392.949 736.287 338.831L364.461 195.653" stroke="white" stroke-width="2" stroke-miterlimit="10" stroke-linecap="round"/>
<path d="M1296.19 958.447L1068.09 631.987C981.825 508.525 860.638 413.649 720.081 359.53L348.256 216.353" stroke="white" stroke-width="2" stroke-miterlimit="10" stroke-linecap="round"/>
<path d="M1279.98 979.146L1051.89 652.686C965.619 529.225 844.432 434.348 703.876 380.23L332.05 237.052" stroke="white" stroke-width="2" stroke-miterlimit="10" stroke-linecap="round"/>
<path d="M1263.78 999.846L1035.68 673.386C949.414 549.925 828.227 455.048 687.67 400.93L315.844 257.752" stroke="white" stroke-width="2" stroke-miterlimit="10" stroke-linecap="round"/>
<path d="M1248.47 1019.4L1020.38 692.936C934.108 569.475 812.921 474.598 672.365 420.48L300.539 277.302" stroke="white" stroke-width="2" stroke-miterlimit="10" stroke-linecap="round"/>
<path d="M1232.27 1040.1L1004.17 713.636C917.903 590.174 796.716 495.297 656.16 441.179L284.334 298.001" stroke="white" stroke-width="2" stroke-miterlimit="10" stroke-linecap="round"/>
<path d="M1216.06 1060.8L987.965 734.336C901.697 610.874 780.51 515.997 639.953 461.879L268.128 318.701" stroke="white" stroke-width="2" stroke-miterlimit="10" stroke-linecap="round"/>
<path d="M1199.85 1081.49L971.76 755.035C885.492 631.573 764.305 536.696 623.748 482.578L251.922 339.4" stroke="white" stroke-width="2" stroke-miterlimit="10" stroke-linecap="round"/>
<path d="M1184.55 1101.04L956.454 774.585C870.186 651.123 748.999 556.246 608.442 502.128L236.617 358.95" stroke="white" stroke-width="2" stroke-miterlimit="10" stroke-linecap="round"/>
<path d="M1168.34 1121.74L940.249 795.284C853.981 671.822 732.794 576.945 592.237 522.827L220.411 379.649" stroke="white" stroke-width="2" stroke-miterlimit="10" stroke-linecap="round"/>
<path d="M1152.14 1142.44L924.043 815.984C837.775 692.522 716.588 597.646 576.031 543.528L204.205 400.35" stroke="white" stroke-width="2" stroke-miterlimit="10" stroke-linecap="round"/>
<path d="M1135.93 1163.14L907.838 836.683C821.57 713.222 700.382 618.345 559.826 564.227L188 421.049" stroke="white" stroke-width="2" stroke-miterlimit="10" stroke-linecap="round"/>
</g>
</g>
</g>
<defs>
<clipPath id="clip0_270_4161">
<rect width="1443" height="429" rx="64" fill="white"/>
</clipPath>
</defs>
</svg>
