<svg width="320" height="301" viewBox="0 0 320 301" fill="none" xmlns="http://www.w3.org/2000/svg">
<g clip-path="url(#clip0_275_4280)">
<rect width="320" height="301" fill="#00963F"/>
<g opacity="0.05">
<path d="M76.6461 -136.346L52.3377 -116.989L47.6754 -86.3245L23.367 -66.9671L18.7047 -36.3026L-5.60373 -16.9452L-10.266 13.7193L-34.577 33.0811L-39.2393 63.7457L-63.5503 83.1075L-68.2126 113.772L-92.521 133.129L-97.1858 163.798L-121.494 183.156L-126.159 213.825L-150.47 233.187" stroke="white" stroke-width="2" stroke-miterlimit="10"/>
<path d="M190.458 -70.842L166.15 -51.4847L161.487 -20.8201L137.179 -1.46275L132.517 29.2018L108.208 48.5591L103.546 79.2237L79.235 98.5855L74.5727 129.25L50.2617 148.612L45.5994 179.276L21.291 198.634L16.6262 229.303L-7.68224 248.66L-12.3471 279.329L-36.6581 298.691" stroke="white" stroke-width="2" stroke-miterlimit="10"/>
<path d="M342.208 16.4969L317.899 35.8542L313.237 66.5188L288.928 85.8761L284.266 116.541L259.958 135.898L255.296 166.563L230.985 185.924L226.322 216.589L202.011 235.951L197.349 266.615L173.041 285.973L168.376 316.642L144.067 335.999L139.402 366.668L115.091 386.03" stroke="white" stroke-width="2" stroke-miterlimit="10"/>
<path d="M106.981 -118.887L82.6724 -99.5296L78.0101 -68.865L53.7017 -49.5077L49.0394 -18.8431L24.731 0.514225L20.0687 31.1788L-4.24229 50.5406L-8.90457 81.2052L-33.2156 100.567L-37.8778 131.232L-62.1863 150.589L-66.8511 181.258L-91.1595 200.615L-95.8244 231.284L-120.135 250.646" stroke="white" stroke-width="2" stroke-miterlimit="10"/>
<path d="M220.793 -53.383L196.485 -34.0257L191.822 -3.36109L167.514 15.9962L162.852 46.6608L138.543 66.0181L133.881 96.6827L109.57 116.045L104.908 146.709L80.5967 166.071L75.9344 196.735L51.626 216.093L46.9611 246.762L22.6527 266.119L17.9879 296.788L-6.32314 316.15" stroke="white" stroke-width="2" stroke-miterlimit="10"/>
<path d="M372.543 33.9559L348.234 53.3132L343.572 83.9778L319.263 103.335L314.601 134L290.293 153.357L285.63 184.022L261.319 203.383L256.657 234.048L232.346 253.41L227.684 284.074L203.375 303.432L198.711 334.101L174.402 353.458L169.737 384.127L145.426 403.489" stroke="white" stroke-width="2" stroke-miterlimit="10"/>
<path d="M137.278 -101.449L112.97 -82.0921L108.307 -51.4275L83.999 -32.0702L79.3368 -1.40559L55.0284 17.9517L50.3661 48.6163L26.0551 67.9781L21.3928 98.6427L-2.91821 118.004L-7.58048 148.669L-31.8889 168.026L-36.5538 198.695L-60.8622 218.053L-65.527 248.722L-89.838 268.084" stroke="white" stroke-width="2" stroke-miterlimit="10"/>
<path d="M251.09 -35.9455L226.782 -16.5882L222.119 14.0764L197.811 33.4337L193.149 64.0983L168.84 83.4556L164.178 114.12L139.867 133.482L135.205 164.147L110.894 183.508L106.232 214.173L81.9231 233.53L77.2583 264.199L52.9498 283.557L48.285 314.226L23.974 333.587" stroke="white" stroke-width="2" stroke-miterlimit="10"/>
<path d="M402.84 51.3934L378.531 70.7507L373.869 101.415L349.561 120.773L344.898 151.437L320.59 170.794L315.928 201.459L291.617 220.821L286.954 251.485L262.643 270.847L257.981 301.512L233.673 320.869L229.008 351.538L204.699 370.895L200.034 401.565L175.723 420.926" stroke="white" stroke-width="2" stroke-miterlimit="10"/>
<path d="M167.688 -83.9474L143.38 -64.5901L138.718 -33.9255L114.409 -14.5682L109.747 16.0964L85.4385 35.4537L80.7762 66.1183L56.4652 85.48L51.803 116.145L27.492 135.506L22.8297 166.171L-1.47875 185.528L-6.14361 216.197L-30.452 235.555L-35.1169 266.224L-59.4279 285.586" stroke="white" stroke-width="2" stroke-miterlimit="10"/>
<path d="M319.438 3.39142L295.129 22.7487L290.467 53.4133L266.158 72.7707L261.496 103.435L237.188 122.793L232.525 153.457L208.214 172.819L203.552 203.483L179.241 222.845L174.579 253.51L150.271 272.867L145.606 303.536L121.297 322.894L116.632 353.563L92.3214 372.924" stroke="white" stroke-width="2" stroke-miterlimit="10"/>
<path d="M281.5 -18.4431L257.192 0.914271L252.53 31.5788L228.221 50.9362L223.559 81.6008L199.251 100.958L194.588 131.623L170.277 150.984L165.615 181.649L141.304 201.011L136.642 231.675L112.333 251.033L107.668 281.702L83.36 301.059L78.6951 331.728L54.3841 351.09" stroke="white" stroke-width="2" stroke-miterlimit="10"/>
<path d="M433.25 68.8958L408.941 88.2531L404.279 118.918L379.971 138.275L375.308 168.94L351 188.297L346.338 218.962L322.027 238.323L317.364 268.988L293.053 288.35L288.391 319.014L264.083 338.372L259.418 369.041L235.11 388.398L230.445 419.067L206.134 438.429" stroke="white" stroke-width="2" stroke-miterlimit="10"/>
<path d="M91.8135 -127.616L67.5051 -108.259L62.8429 -77.5945L38.5344 -58.2372L33.8722 -27.5726L9.56375 -8.21527L4.90147 22.4493L-19.4095 41.8111L-24.0718 72.4757L-48.3828 91.8375L-53.0451 122.502L-77.3535 141.859L-82.0184 172.528L-106.327 191.886L-110.992 222.555L-135.303 241.917" stroke="white" stroke-width="2" stroke-miterlimit="10"/>
<path d="M205.626 -62.1125L181.317 -42.7552L176.655 -12.0906L152.346 7.26675L147.684 37.9313L123.376 57.2886L118.713 87.9532L94.4025 107.315L89.7402 137.98L65.4292 157.341L60.7669 188.006L36.4585 207.363L31.7937 238.032L7.48524 257.39L2.82037 288.059L-21.4906 307.42" stroke="white" stroke-width="2" stroke-miterlimit="10"/>
<path d="M357.375 25.2264L333.067 44.5837L328.405 75.2483L304.096 94.6056L299.434 125.27L275.126 144.628L270.463 175.292L246.152 194.654L241.49 225.318L217.179 244.68L212.517 275.345L188.208 294.702L183.543 325.371L159.235 344.729L154.57 375.398L130.259 394.759" stroke="white" stroke-width="2" stroke-miterlimit="10"/>
<path d="M122.111 -110.179L97.8023 -90.8221L93.14 -60.1575L68.8316 -40.8001L64.1693 -10.1356L39.8609 9.22174L35.1986 39.8863L10.8876 59.2481L6.22532 89.9127L-18.0857 109.274L-22.748 139.939L-47.0564 159.296L-51.7212 189.965L-76.0296 209.323L-80.6945 239.992L-105.006 259.354" stroke="white" stroke-width="2" stroke-miterlimit="10"/>
<path d="M235.923 -44.675L211.615 -25.3177L206.952 5.34692L182.644 24.7042L177.982 55.3688L153.673 74.7261L149.011 105.391L124.7 124.753L120.038 155.417L95.7266 174.779L91.0643 205.443L66.7559 224.801L62.091 255.47L37.7826 274.827L33.1177 305.496L8.80674 324.858" stroke="white" stroke-width="2" stroke-miterlimit="10"/>
<path d="M387.672 42.6639L363.364 62.0212L358.701 92.6858L334.393 112.043L329.731 142.708L305.422 162.065L300.76 192.73L276.449 212.091L271.787 242.756L247.476 262.118L242.814 292.782L218.505 312.14L213.84 342.809L189.532 362.166L184.867 392.835L160.556 412.197" stroke="white" stroke-width="2" stroke-miterlimit="10"/>
<path d="M152.483 -92.6984L128.175 -73.3411L123.513 -42.6765L99.2041 -23.3192L94.5418 7.34539L70.2334 26.7027L65.5712 57.3673L41.2602 76.7291L36.5979 107.394L12.2869 126.755L7.6246 157.42L-16.6838 176.777L-21.3487 207.446L-45.6571 226.804L-50.322 257.473L-74.633 276.835" stroke="white" stroke-width="2" stroke-miterlimit="10"/>
<path d="M304.232 -5.35956L279.924 13.9978L275.262 44.6623L250.953 64.0197L246.291 94.6843L221.983 114.042L217.32 144.706L193.009 164.068L188.347 194.733L164.036 214.094L159.374 244.759L135.065 264.116L130.401 294.785L106.092 314.143L101.427 344.812L77.1163 364.173" stroke="white" stroke-width="2" stroke-miterlimit="10"/>
<path d="M266.295 -27.1945L241.987 -7.83719L237.325 22.8274L213.016 42.1847L208.354 72.8493L184.045 92.2066L179.383 122.871L155.072 142.233L150.41 172.898L126.099 192.259L121.437 222.924L97.1282 242.281L92.4633 272.95L68.1549 292.308L63.49 322.977L39.1791 342.338" stroke="white" stroke-width="2" stroke-miterlimit="10"/>
<path d="M418.045 60.1444L393.736 79.5017L389.074 110.166L364.766 129.524L360.103 160.188L335.795 179.545L331.133 210.21L306.822 229.572L302.159 260.236L277.848 279.598L273.186 310.263L248.878 329.62L244.213 360.289L219.904 379.646L215.24 410.316L190.929 429.677" stroke="white" stroke-width="2" stroke-miterlimit="10"/>
<path d="M182.856 -75.2175L158.547 -55.8601L153.885 -25.1956L129.577 -5.83824L124.914 24.8263L100.606 44.1837L95.9437 74.8482L71.6327 94.21L66.9704 124.875L42.6594 144.236L37.9972 174.901L13.6887 194.258L9.02388 224.927L-15.2845 244.285L-19.9494 274.954L-44.2604 294.315" stroke="white" stroke-width="2" stroke-miterlimit="10"/>
<path d="M334.605 12.1214L310.297 31.4787L305.634 62.1433L281.326 81.5006L276.664 112.165L252.355 131.523L247.693 162.187L223.382 181.549L218.72 212.213L194.409 231.575L189.746 262.24L165.438 281.597L160.773 312.266L136.465 331.624L131.8 362.293L107.489 381.654" stroke="white" stroke-width="2" stroke-miterlimit="10"/>
<path d="M296.668 -9.71356L272.359 9.64376L267.697 40.3083L243.389 59.6657L238.726 90.3302L214.418 109.688L209.756 140.352L185.445 159.714L180.782 190.379L156.471 209.74L151.809 240.405L127.501 259.762L122.836 290.431L98.5275 309.789L93.8626 340.458L69.5516 359.819" stroke="white" stroke-width="2" stroke-miterlimit="10"/>
<path d="M448.417 77.6253L424.109 96.9826L419.446 127.647L395.138 147.005L390.476 177.669L366.167 197.026L361.505 227.691L337.194 247.053L332.532 277.717L308.221 297.079L303.558 327.744L279.25 347.101L274.585 377.77L250.277 397.127L245.612 427.796L221.301 447.158" stroke="white" stroke-width="2" stroke-miterlimit="10"/>
<path d="M84.2486 -131.97L59.9402 -112.613L55.2779 -81.9485L30.9695 -62.5912L26.3072 -31.9266L1.99881 -12.5693L-2.66347 18.0953L-26.9745 37.4571L-31.6367 68.1217L-55.9477 87.4835L-60.61 118.148L-84.9184 137.505L-89.5833 168.174L-113.892 187.532L-118.557 218.201L-142.868 237.563" stroke="white" stroke-width="2" stroke-miterlimit="10"/>
<path d="M198.061 -66.4665L173.752 -47.1092L169.09 -16.4446L144.782 2.91274L140.119 33.5773L115.811 52.9346L111.149 83.5992L86.8375 102.961L82.1753 133.626L57.8643 152.987L53.202 183.652L28.8936 203.009L24.2287 233.678L-0.0796965 253.036L-4.74457 283.705L-29.0556 303.066" stroke="white" stroke-width="2" stroke-miterlimit="10"/>
<path d="M349.81 20.8724L325.502 40.2297L320.839 70.8943L296.531 90.2516L291.869 120.916L267.56 140.274L262.898 170.938L238.587 190.3L233.925 220.964L209.614 240.326L204.951 270.991L180.643 290.348L175.978 321.017L151.67 340.374L147.005 371.044L122.694 390.405" stroke="white" stroke-width="2" stroke-miterlimit="10"/>
<path d="M114.546 -114.533L90.2373 -95.1756L85.575 -64.511L61.2666 -45.1537L56.6043 -14.4891L32.2959 4.86823L27.6337 35.5328L3.32265 54.8946L-1.33963 85.5592L-25.6506 104.921L-30.3129 135.586L-54.6213 154.943L-59.2862 185.612L-83.5946 204.969L-88.2595 235.638L-112.57 255" stroke="white" stroke-width="2" stroke-miterlimit="10"/>
<path d="M228.358 -49.029L204.049 -29.6717L199.387 0.992912L175.079 20.3502L170.416 51.0148L146.108 70.3721L141.446 101.037L117.135 120.399L112.472 151.063L88.1614 170.425L83.4991 201.089L59.1907 220.447L54.5258 251.116L30.2174 270.473L25.5525 301.142L1.24156 320.504" stroke="white" stroke-width="2" stroke-miterlimit="10"/>
<path d="M380.107 38.3099L355.799 57.6672L351.137 88.3318L326.828 107.689L322.166 138.354L297.857 157.711L293.195 188.376L268.884 207.737L264.222 238.402L239.911 257.764L235.249 288.428L210.94 307.786L206.275 338.455L181.967 357.812L177.302 388.481L152.991 407.843" stroke="white" stroke-width="2" stroke-miterlimit="10"/>
<path d="M144.88 -97.0739L120.572 -77.7166L115.91 -47.052L91.6013 -27.6947L86.9391 2.9699L62.6306 22.3272L57.9684 52.9918L33.6574 72.3536L28.9951 103.018L4.68409 122.38L0.0218119 153.045L-24.2866 172.402L-28.9515 203.071L-53.2599 222.428L-57.9247 253.097L-82.2357 272.459" stroke="white" stroke-width="2" stroke-miterlimit="10"/>
<path d="M258.693 -31.57L234.385 -12.2127L229.722 18.4519L205.414 37.8092L200.752 68.4738L176.443 87.8311L171.781 118.496L147.47 137.857L142.808 168.522L118.497 187.884L113.834 218.548L89.5259 237.906L84.861 268.575L60.5526 287.932L55.8878 318.601L31.5768 337.963" stroke="white" stroke-width="2" stroke-miterlimit="10"/>
<path d="M410.442 55.7689L386.134 75.1262L381.472 105.791L357.163 125.148L352.501 155.813L328.192 175.17L323.53 205.835L299.219 225.196L294.557 255.861L270.246 275.223L265.584 305.887L241.275 325.245L236.61 355.914L212.302 375.271L207.637 405.94L183.326 425.302" stroke="white" stroke-width="2" stroke-miterlimit="10"/>
<path d="M175.291 -79.5715L150.982 -60.2141L146.32 -29.5496L122.011 -10.1922L117.349 20.4723L93.0408 39.8297L88.3785 70.4942L64.0675 89.856L59.4052 120.521L35.0942 139.882L30.432 170.547L6.12355 189.904L1.45869 220.573L-22.8497 239.931L-27.5146 270.6L-51.8256 289.961" stroke="white" stroke-width="2" stroke-miterlimit="10"/>
<path d="M327.04 7.76691L302.732 27.1242L298.07 57.7888L273.761 77.1461L269.099 107.811L244.791 127.168L240.128 157.833L215.817 177.194L211.155 207.859L186.844 227.221L182.182 257.885L157.873 277.243L153.208 307.912L128.9 327.269L124.235 357.938L99.9242 377.3" stroke="white" stroke-width="2" stroke-miterlimit="10"/>
<path d="M289.103 -14.0676L264.794 5.28976L260.132 35.9543L235.824 55.3117L231.161 85.9762L206.853 105.334L202.191 135.998L177.88 155.36L173.218 186.025L148.907 205.386L144.244 236.051L119.936 255.408L115.271 286.077L90.9625 305.435L86.2977 336.104L61.9867 355.465" stroke="white" stroke-width="2" stroke-miterlimit="10"/>
<path d="M440.852 73.2713L416.544 92.6286L411.881 123.293L387.573 142.651L382.911 173.315L358.602 192.672L353.94 223.337L329.629 242.699L324.967 273.363L300.656 292.725L295.993 323.39L271.685 342.747L267.02 373.416L242.712 392.773L238.047 423.442L213.736 442.804" stroke="white" stroke-width="2" stroke-miterlimit="10"/>
<path d="M99.3782 -123.263L75.0698 -103.906L70.4076 -73.241L46.0991 -53.8836L41.4369 -23.2191L17.1284 -3.86175L12.4662 26.8028L-11.8448 46.1646L-16.5071 76.8292L-40.8181 96.191L-45.4804 126.856L-69.7888 146.213L-74.4537 176.882L-98.7621 196.239L-103.427 226.908L-127.738 246.27" stroke="white" stroke-width="2" stroke-miterlimit="10"/>
<path d="M213.191 -57.7585L188.882 -38.4012L184.22 -7.73658L159.912 11.6207L155.249 42.2853L130.941 61.6426L126.279 92.3072L101.968 111.669L97.3054 142.334L72.9944 161.695L68.3321 192.36L44.0237 211.717L39.3588 242.386L15.0504 261.744L10.3856 292.413L-13.9254 311.774" stroke="white" stroke-width="2" stroke-miterlimit="10"/>
<path d="M364.94 29.5804L340.632 48.9377L335.969 79.6023L311.661 98.9596L306.999 129.624L282.69 148.982L278.028 179.646L253.717 199.008L249.055 229.672L224.744 249.034L220.081 279.699L195.773 299.056L191.108 329.725L166.8 349.083L162.135 379.752L137.824 399.113" stroke="white" stroke-width="2" stroke-miterlimit="10"/>
<path d="M129.713 -105.803L105.405 -86.4461L100.743 -55.7815L76.4341 -36.4242L71.7718 -5.75959L47.4634 13.5977L42.8011 44.2623L18.4901 63.6241L13.8279 94.2887L-10.4831 113.65L-15.1454 144.315L-39.4538 163.672L-44.1187 194.341L-68.4271 213.699L-73.092 244.368L-97.403 263.73" stroke="white" stroke-width="2" stroke-miterlimit="10"/>
<path d="M243.525 -40.2995L219.217 -20.9422L214.555 9.7224L190.246 29.0797L185.584 59.7443L161.275 79.1016L156.613 109.766L132.302 129.128L127.64 159.793L103.329 179.154L98.6666 209.819L74.3582 229.176L69.6933 259.845L45.3849 279.203L40.72 309.872L16.409 329.233" stroke="white" stroke-width="2" stroke-miterlimit="10"/>
<path d="M395.275 47.0394L370.966 66.3967L366.304 97.0613L341.996 116.419L337.333 147.083L313.025 166.44L308.363 197.105L284.052 216.467L279.389 247.131L255.078 266.493L250.416 297.158L226.108 316.515L221.443 347.184L197.134 366.541L192.47 397.211L168.159 416.572" stroke="white" stroke-width="2" stroke-miterlimit="10"/>
<path d="M160.086 -88.3229L135.777 -68.9656L131.115 -38.301L106.807 -18.9437L102.144 11.7209L77.836 31.0782L73.1737 61.7428L48.8627 81.1046L44.2004 111.769L19.8894 131.131L15.2271 161.796L-9.08129 181.153L-13.7461 211.822L-38.0546 231.179L-42.7194 261.848L-67.0304 281.21" stroke="white" stroke-width="2" stroke-miterlimit="10"/>
<path d="M311.835 -0.984067L287.527 18.3733L282.865 49.0378L258.556 68.3952L253.894 99.0597L229.585 118.417L224.923 149.082L200.612 168.443L195.95 199.108L171.639 218.47L166.977 249.134L142.668 268.492L138.003 299.161L113.695 318.518L109.03 349.187L84.7191 368.549" stroke="white" stroke-width="2" stroke-miterlimit="10"/>
<path d="M273.898 -22.8185L249.589 -3.46122L244.927 27.2034L220.619 46.5607L215.956 77.2253L191.648 96.5826L186.986 127.247L162.675 146.609L158.012 177.274L133.701 196.635L129.039 227.3L104.731 246.657L100.066 277.326L75.7575 296.684L71.0926 327.353L46.7816 346.714" stroke="white" stroke-width="2" stroke-miterlimit="10"/>
<path d="M425.647 64.5203L401.339 83.8776L396.676 114.542L372.368 133.9L367.706 164.564L343.397 183.921L338.735 214.586L314.424 233.948L309.762 264.612L285.451 283.974L280.788 314.639L256.48 333.996L251.815 364.665L227.507 384.022L222.842 414.692L198.531 434.053" stroke="white" stroke-width="2" stroke-miterlimit="10"/>
</g>
</g>
<defs>
<clipPath id="clip0_275_4280">
<rect width="320" height="301" fill="white"/>
</clipPath>
</defs>
</svg>
