<svg width="320" height="333" viewBox="0 0 320 333" fill="none" xmlns="http://www.w3.org/2000/svg">
<g clip-path="url(#clip0_275_4332)">
<rect width="320" height="333" fill="#058CB6"/>
<g opacity="0.05">
<path d="M515.433 150.675L407.018 -4.49436C366.014 -63.1768 308.413 -108.273 241.605 -133.995L64.8728 -202.049" stroke="white" stroke-width="2" stroke-miterlimit="10" stroke-linecap="round"/>
<path d="M507.731 160.514L399.315 5.34451C358.312 -53.3379 300.71 -98.4338 233.902 -124.157L57.1702 -192.21" stroke="white" stroke-width="2" stroke-miterlimit="10" stroke-linecap="round"/>
<path d="M500.028 170.352L391.613 15.1829C350.609 -43.4996 293.007 -88.5954 226.199 -114.318L49.4673 -182.372" stroke="white" stroke-width="2" stroke-miterlimit="10" stroke-linecap="round"/>
<path d="M492.326 180.191L383.91 25.0218C342.906 -33.6607 285.305 -78.7565 218.497 -104.479L41.7649 -172.533" stroke="white" stroke-width="2" stroke-miterlimit="10" stroke-linecap="round"/>
<path d="M485.051 189.483L376.635 34.3137C335.631 -24.3687 278.03 -69.4645 211.222 -95.1873L34.4986 -163.252" stroke="white" stroke-width="2" stroke-miterlimit="10" stroke-linecap="round"/>
<path d="M477.348 199.322L368.933 44.1526C327.929 -14.5298 270.328 -59.6257 203.52 -85.3485L26.7962 -153.413" stroke="white" stroke-width="2" stroke-miterlimit="10" stroke-linecap="round"/>
<path d="M469.645 209.16L361.23 53.991C320.226 -4.69145 262.625 -49.7873 195.817 -75.5101L19.0933 -143.575" stroke="white" stroke-width="2" stroke-miterlimit="10" stroke-linecap="round"/>
<path d="M461.943 218.999L353.527 63.8299C312.523 5.14742 254.922 -39.9484 188.114 -65.6712L11.3907 -133.736" stroke="white" stroke-width="2" stroke-miterlimit="10" stroke-linecap="round"/>
<path d="M454.668 228.291L346.253 73.1223C305.249 14.4399 247.647 -30.6559 180.84 -56.3787L4.116 -124.443" stroke="white" stroke-width="2" stroke-miterlimit="10" stroke-linecap="round"/>
<path d="M446.965 238.13L338.55 82.9607C297.546 24.2783 239.945 -20.8176 173.137 -46.5404L-3.58664 -114.605" stroke="white" stroke-width="2" stroke-miterlimit="10" stroke-linecap="round"/>
<path d="M439.263 247.969L330.847 92.7996C289.843 34.1171 232.242 -10.9787 165.434 -36.7015L-11.2895 -104.766" stroke="white" stroke-width="2" stroke-miterlimit="10" stroke-linecap="round"/>
<path d="M431.56 257.808L323.145 102.638C282.141 43.956 224.539 -1.13984 157.731 -26.8626L-18.9922 -94.9273" stroke="white" stroke-width="2" stroke-miterlimit="10" stroke-linecap="round"/>
<path d="M424.285 267.1L315.87 111.93C274.866 53.248 217.265 8.15216 150.457 -17.5706L-26.2668 -85.6353" stroke="white" stroke-width="2" stroke-miterlimit="10" stroke-linecap="round"/>
<path d="M416.583 276.938L308.167 121.769C267.163 63.0869 209.562 17.991 142.754 -7.73177L-33.9695 -75.7965" stroke="white" stroke-width="2" stroke-miterlimit="10" stroke-linecap="round"/>
<path d="M408.88 286.777L300.464 131.608C259.461 72.9252 201.859 27.8294 135.051 2.10661L-41.6723 -65.9581" stroke="white" stroke-width="2" stroke-miterlimit="10" stroke-linecap="round"/>
<path d="M401.177 296.616L292.762 141.447C251.758 82.7641 194.156 37.6683 127.349 11.9455L-49.3835 -56.1083" stroke="white" stroke-width="2" stroke-miterlimit="10" stroke-linecap="round"/>
<path d="M393.474 306.455L285.059 151.285C244.055 92.603 186.454 47.5071 119.646 21.7843L-57.0862 -46.2694" stroke="white" stroke-width="2" stroke-miterlimit="10" stroke-linecap="round"/>
<path d="M385.772 316.293L277.357 161.124C236.353 102.441 178.751 57.3455 111.944 31.6227L-64.7885 -36.431" stroke="white" stroke-width="2" stroke-miterlimit="10" stroke-linecap="round"/>
<path d="M378.069 326.132L269.654 170.963C228.65 112.28 171.048 67.1844 104.24 41.4616L-72.4917 -26.5922" stroke="white" stroke-width="2" stroke-miterlimit="10" stroke-linecap="round"/>
<path d="M370.367 335.97L261.951 180.801C220.947 122.119 163.346 77.0228 96.5381 51.3L-80.1941 -16.7538" stroke="white" stroke-width="2" stroke-miterlimit="10" stroke-linecap="round"/>
<path d="M363.092 345.263L254.676 190.094C213.672 131.411 156.071 86.3152 89.2632 60.5924L-87.469 -7.46131" stroke="white" stroke-width="2" stroke-miterlimit="10" stroke-linecap="round"/>
<path d="M355.389 355.101L246.974 199.932C205.97 141.249 148.368 96.1536 81.5605 70.4308L-95.1716 2.37707" stroke="white" stroke-width="2" stroke-miterlimit="10" stroke-linecap="round"/>
<path d="M347.686 364.94L239.271 209.771C198.267 151.088 140.665 105.992 73.8577 80.2697L-102.874 12.2159" stroke="white" stroke-width="2" stroke-miterlimit="10" stroke-linecap="round"/>
<path d="M339.984 374.779L231.568 219.61C190.565 160.927 132.963 115.831 66.1553 90.1086L-110.577 22.0548" stroke="white" stroke-width="2" stroke-miterlimit="10" stroke-linecap="round"/>
<path d="M332.709 384.071L224.293 228.902C183.29 170.219 125.688 125.123 58.8804 99.4006L-117.852 31.3468" stroke="white" stroke-width="2" stroke-miterlimit="10" stroke-linecap="round"/>
<path d="M325.006 393.91L216.591 238.741C175.587 180.058 117.986 134.962 51.178 109.239L-125.554 41.1857" stroke="white" stroke-width="2" stroke-miterlimit="10" stroke-linecap="round"/>
<path d="M317.304 403.748L208.888 248.579C167.884 189.896 110.283 144.801 43.4751 119.078L-133.257 51.024" stroke="white" stroke-width="2" stroke-miterlimit="10" stroke-linecap="round"/>
<path d="M309.601 413.587L201.186 258.418C160.182 199.735 102.58 154.639 35.7725 128.917L-140.96 60.8629" stroke="white" stroke-width="2" stroke-miterlimit="10" stroke-linecap="round"/>
<path d="M302.326 422.879L193.911 267.71C152.907 209.027 95.3054 163.931 28.4976 138.209L-148.235 70.1549" stroke="white" stroke-width="2" stroke-miterlimit="10" stroke-linecap="round"/>
<path d="M294.623 432.718L186.208 277.549C145.204 218.866 87.6028 173.77 20.7949 148.048L-155.937 79.9938" stroke="white" stroke-width="2" stroke-miterlimit="10" stroke-linecap="round"/>
<path d="M286.921 442.556L178.505 287.387C137.502 228.705 79.9001 183.609 13.0923 157.886L-163.64 89.8321" stroke="white" stroke-width="2" stroke-miterlimit="10" stroke-linecap="round"/>
<path d="M279.218 452.395L170.803 297.226C129.799 238.544 72.1975 193.448 5.38965 167.725L-171.343 99.6715" stroke="white" stroke-width="2" stroke-miterlimit="10" stroke-linecap="round"/>
<path d="M273.346 461.022L164.93 305.853C123.927 247.171 66.3252 202.075 -0.482663 176.352L-177.215 108.298" stroke="white" stroke-width="2" stroke-miterlimit="10" stroke-linecap="round"/>
<path d="M265.643 470.861L157.228 315.692C116.224 257.009 58.6225 211.913 -8.1853 186.191L-184.917 118.137" stroke="white" stroke-width="2" stroke-miterlimit="10" stroke-linecap="round"/>
<path d="M257.941 480.7L149.525 325.531C108.521 266.848 50.9199 221.752 -15.8879 196.029L-192.62 127.976" stroke="white" stroke-width="2" stroke-miterlimit="10" stroke-linecap="round"/>
<path d="M250.238 490.539L141.823 335.369C100.819 276.687 43.2173 231.591 -23.5906 205.868L-200.323 137.815" stroke="white" stroke-width="2" stroke-miterlimit="10" stroke-linecap="round"/>
<path d="M242.963 499.831L134.548 344.661C93.5438 285.979 35.9423 240.883 -30.8655 215.16L-207.598 147.107" stroke="white" stroke-width="2" stroke-miterlimit="10" stroke-linecap="round"/>
<path d="M235.261 509.669L126.845 354.5C85.8414 295.818 28.24 250.722 -38.5679 224.999L-215.3 156.945" stroke="white" stroke-width="2" stroke-miterlimit="10" stroke-linecap="round"/>
<path d="M227.558 519.508L119.142 364.339C78.1385 305.656 20.5371 260.56 -46.2707 234.838L-223.003 166.784" stroke="white" stroke-width="2" stroke-miterlimit="10" stroke-linecap="round"/>
<path d="M219.855 529.347L111.44 374.178C70.4358 315.495 12.8344 270.399 -53.9734 244.676L-230.706 176.623" stroke="white" stroke-width="2" stroke-miterlimit="10" stroke-linecap="round"/>
<path d="M212.58 538.639L104.165 383.47C63.1609 324.787 5.55954 279.691 -61.2483 253.968L-237.98 185.915" stroke="white" stroke-width="2" stroke-miterlimit="10" stroke-linecap="round"/>
<path d="M204.878 548.478L96.4624 393.308C55.4586 334.626 -2.14285 289.53 -68.9507 263.807L-245.683 195.754" stroke="white" stroke-width="2" stroke-miterlimit="10" stroke-linecap="round"/>
<path d="M197.175 558.316L88.7596 403.147C47.7557 344.464 -9.84574 299.368 -76.6536 273.646L-253.386 205.592" stroke="white" stroke-width="2" stroke-miterlimit="10" stroke-linecap="round"/>
<path d="M189.472 568.155L81.0569 412.986C40.053 354.303 -17.5484 309.207 -84.3562 283.485L-261.088 215.431" stroke="white" stroke-width="2" stroke-miterlimit="10" stroke-linecap="round"/>
</g>
</g>
<defs>
<clipPath id="clip0_275_4332">
<rect width="320" height="333" fill="white"/>
</clipPath>
</defs>
</svg>
