<svg width="784" height="429" viewBox="0 0 784 429" fill="none" xmlns="http://www.w3.org/2000/svg">
<path d="M784 429H0L124 0H784V429Z" fill="#058CB6"/>
<mask id="mask0_270_4104" style="mask-type:alpha" maskUnits="userSpaceOnUse" x="0" y="0" width="784" height="429">
<path d="M784 429H0L124 0H784V429Z" fill="#058CB6"/>
</mask>
<g mask="url(#mask0_270_4104)">
<g opacity="0.05">
<path d="M1162.72 284.809L934.625 -41.6506C848.358 -165.112 727.17 -259.989 586.614 -314.107L214.788 -457.285" stroke="white" stroke-width="2" stroke-miterlimit="10" stroke-linecap="round"/>
<path d="M1146.51 305.509L918.42 -20.9509C832.152 -144.413 710.965 -239.289 570.408 -293.408L198.582 -436.585" stroke="white" stroke-width="2" stroke-miterlimit="10" stroke-linecap="round"/>
<path d="M1130.31 326.208L902.214 -0.251693C815.946 -123.713 694.759 -218.59 554.203 -272.708L182.377 -415.886" stroke="white" stroke-width="2" stroke-miterlimit="10" stroke-linecap="round"/>
<path d="M1114.1 346.907L886.009 20.448C799.741 -103.014 678.554 -197.891 537.997 -252.009L166.171 -395.187" stroke="white" stroke-width="2" stroke-miterlimit="10" stroke-linecap="round"/>
<path d="M1098.8 366.457L870.703 39.9973C784.435 -83.4643 663.248 -178.341 522.691 -232.459L150.884 -375.66" stroke="white" stroke-width="2" stroke-miterlimit="10" stroke-linecap="round"/>
<path d="M1082.59 387.157L854.498 60.6975C768.23 -62.7641 647.043 -157.641 506.486 -211.759L134.679 -354.96" stroke="white" stroke-width="2" stroke-miterlimit="10" stroke-linecap="round"/>
<path d="M1066.39 407.856L838.292 81.3967C752.025 -42.0649 630.837 -136.942 490.281 -191.06L118.473 -334.261" stroke="white" stroke-width="2" stroke-miterlimit="10" stroke-linecap="round"/>
<path d="M1050.18 428.556L822.087 102.096C735.819 -21.3652 614.632 -116.242 474.075 -170.36L102.267 -313.561" stroke="white" stroke-width="2" stroke-miterlimit="10" stroke-linecap="round"/>
<path d="M1034.88 448.106L806.781 121.646C720.513 -1.8154 599.326 -96.6923 458.77 -150.81L86.9617 -294.011" stroke="white" stroke-width="2" stroke-miterlimit="10" stroke-linecap="round"/>
<path d="M1018.67 468.805L790.576 142.345C704.308 18.8838 583.121 -75.9931 442.564 -130.111L70.7566 -273.312" stroke="white" stroke-width="2" stroke-miterlimit="10" stroke-linecap="round"/>
<path d="M1002.46 489.505L774.37 163.046C688.102 39.584 566.915 -55.2929 426.358 -109.411L54.5506 -252.612" stroke="white" stroke-width="2" stroke-miterlimit="10" stroke-linecap="round"/>
<path d="M986.259 510.205L758.165 183.745C671.897 60.2837 550.709 -34.5932 410.153 -88.7112L38.345 -231.912" stroke="white" stroke-width="2" stroke-miterlimit="10" stroke-linecap="round"/>
<path d="M970.954 529.754L742.859 203.295C656.591 79.833 535.404 -15.0439 394.847 -69.1619L23.0396 -212.363" stroke="white" stroke-width="2" stroke-miterlimit="10" stroke-linecap="round"/>
<path d="M954.748 550.454L726.654 223.994C640.386 100.533 519.199 5.65585 378.642 -48.4622L6.83428 -191.663" stroke="white" stroke-width="2" stroke-miterlimit="10" stroke-linecap="round"/>
<path d="M938.542 571.154L710.448 244.694C624.18 121.232 502.993 26.3556 362.436 -27.7625L-9.37178 -170.963" stroke="white" stroke-width="2" stroke-miterlimit="10" stroke-linecap="round"/>
<path d="M922.337 591.853L694.242 265.393C607.975 141.932 486.787 47.0548 346.231 -7.06327L-25.5951 -150.241" stroke="white" stroke-width="2" stroke-miterlimit="10" stroke-linecap="round"/>
<path d="M906.131 612.552L678.037 286.093C591.769 162.631 470.581 67.754 330.025 13.6359L-41.8009 -129.542" stroke="white" stroke-width="2" stroke-miterlimit="10" stroke-linecap="round"/>
<path d="M889.926 633.252L661.832 306.793C575.564 183.331 454.376 88.4542 313.82 34.3361L-58.006 -108.842" stroke="white" stroke-width="2" stroke-miterlimit="10" stroke-linecap="round"/>
<path d="M873.72 653.951L645.625 327.492C559.357 204.03 438.17 109.153 297.614 55.0354L-74.2123 -88.1425" stroke="white" stroke-width="2" stroke-miterlimit="10" stroke-linecap="round"/>
<path d="M857.515 674.651L629.42 348.191C543.152 224.73 421.965 129.853 281.408 75.7346L-90.4174 -67.4433" stroke="white" stroke-width="2" stroke-miterlimit="10" stroke-linecap="round"/>
<path d="M842.209 694.2L614.114 367.741C527.846 244.279 406.659 149.402 266.103 95.2844L-105.723 -47.8935" stroke="white" stroke-width="2" stroke-miterlimit="10" stroke-linecap="round"/>
<path d="M826.003 714.9L597.909 388.44C511.641 264.979 390.454 170.102 249.897 115.984L-121.929 -27.1943" stroke="white" stroke-width="2" stroke-miterlimit="10" stroke-linecap="round"/>
<path d="M809.797 735.6L581.703 409.14C495.435 285.679 374.248 190.802 233.691 136.684L-138.135 -6.49411" stroke="white" stroke-width="2" stroke-miterlimit="10" stroke-linecap="round"/>
<path d="M793.592 756.3L565.498 429.841C479.23 306.379 358.043 211.502 217.486 157.384L-154.34 14.2061" stroke="white" stroke-width="2" stroke-miterlimit="10" stroke-linecap="round"/>
<path d="M778.287 775.849L550.192 449.389C463.924 325.928 342.737 231.051 202.181 176.933L-169.645 33.7549" stroke="white" stroke-width="2" stroke-miterlimit="10" stroke-linecap="round"/>
<path d="M762.081 796.549L533.987 470.09C447.719 346.628 326.532 251.751 185.975 197.633L-185.851 54.4551" stroke="white" stroke-width="2" stroke-miterlimit="10" stroke-linecap="round"/>
<path d="M745.876 817.248L517.781 490.789C431.513 367.327 310.326 272.45 169.769 218.332L-202.056 75.1543" stroke="white" stroke-width="2" stroke-miterlimit="10" stroke-linecap="round"/>
<path d="M729.67 837.948L501.576 511.488C415.308 388.026 294.12 293.149 153.564 239.031L-218.262 95.8535" stroke="white" stroke-width="2" stroke-miterlimit="10" stroke-linecap="round"/>
<path d="M714.365 857.497L486.27 531.038C400.002 407.576 278.815 312.699 138.258 258.581L-233.567 115.403" stroke="white" stroke-width="2" stroke-miterlimit="10" stroke-linecap="round"/>
<path d="M698.159 878.198L470.065 551.738C383.797 428.276 262.609 333.399 122.053 279.281L-249.773 136.104" stroke="white" stroke-width="2" stroke-miterlimit="10" stroke-linecap="round"/>
<path d="M681.953 898.897L453.859 572.437C367.591 448.976 246.404 354.099 105.847 299.981L-265.979 156.803" stroke="white" stroke-width="2" stroke-miterlimit="10" stroke-linecap="round"/>
<path d="M665.748 919.597L437.653 593.137C351.385 469.676 230.198 374.799 89.6415 320.681L-282.184 177.503" stroke="white" stroke-width="2" stroke-miterlimit="10" stroke-linecap="round"/>
<path d="M653.393 937.747L425.298 611.288C339.031 487.826 217.843 392.949 77.2867 338.831L-294.539 195.653" stroke="white" stroke-width="2" stroke-miterlimit="10" stroke-linecap="round"/>
<path d="M637.188 958.447L409.093 631.987C322.825 508.525 201.638 413.649 61.0814 359.53L-310.744 216.353" stroke="white" stroke-width="2" stroke-miterlimit="10" stroke-linecap="round"/>
<path d="M620.982 979.146L392.887 652.686C306.619 529.225 185.432 434.348 44.8756 380.23L-326.95 237.052" stroke="white" stroke-width="2" stroke-miterlimit="10" stroke-linecap="round"/>
<path d="M604.776 999.846L376.682 673.386C290.414 549.925 169.227 455.048 28.67 400.93L-343.156 257.752" stroke="white" stroke-width="2" stroke-miterlimit="10" stroke-linecap="round"/>
<path d="M589.471 1019.4L361.376 692.936C275.108 569.475 153.921 474.598 13.3646 420.48L-358.461 277.302" stroke="white" stroke-width="2" stroke-miterlimit="10" stroke-linecap="round"/>
<path d="M573.266 1040.1L345.171 713.636C258.903 590.174 137.716 495.297 -2.84048 441.179L-374.666 298.001" stroke="white" stroke-width="2" stroke-miterlimit="10" stroke-linecap="round"/>
<path d="M557.06 1060.8L328.965 734.336C242.697 610.874 121.51 515.997 -19.0465 461.879L-390.872 318.701" stroke="white" stroke-width="2" stroke-miterlimit="10" stroke-linecap="round"/>
<path d="M540.854 1081.49L312.76 755.035C226.492 631.573 105.305 536.696 -35.2519 482.578L-407.078 339.4" stroke="white" stroke-width="2" stroke-miterlimit="10" stroke-linecap="round"/>
<path d="M525.549 1101.04L297.454 774.585C211.186 651.123 89.9991 556.246 -50.5575 502.128L-422.383 358.95" stroke="white" stroke-width="2" stroke-miterlimit="10" stroke-linecap="round"/>
<path d="M509.343 1121.74L281.249 795.284C194.981 671.822 73.7938 576.945 -66.7628 522.827L-438.589 379.649" stroke="white" stroke-width="2" stroke-miterlimit="10" stroke-linecap="round"/>
<path d="M493.137 1142.44L265.043 815.984C178.775 692.522 57.5877 597.646 -82.9689 543.528L-454.795 400.35" stroke="white" stroke-width="2" stroke-miterlimit="10" stroke-linecap="round"/>
<path d="M476.932 1163.14L248.838 836.683C162.57 713.222 41.3824 618.345 -99.1742 564.227L-471 421.049" stroke="white" stroke-width="2" stroke-miterlimit="10" stroke-linecap="round"/>
</g>
</g>
</svg>
