<svg width="16" height="16" viewBox="0 0 16 16" fill="none" xmlns="http://www.w3.org/2000/svg">
<path d="M13.5652 5.04256L6.49852 12.1092C6.43593 12.1723 6.35073 12.2078 6.26185 12.2078C6.17297 12.2078 6.08777 12.1723 6.02519 12.1092L2.43185 8.51587C2.36875 8.45334 2.33325 8.36814 2.33325 8.2792C2.33325 8.19034 2.36875 8.10514 2.43185 8.04254L2.89852 7.57587C2.96111 7.5128 3.04631 7.47727 3.13519 7.47727C3.22407 7.47727 3.30927 7.5128 3.37185 7.57587L6.25852 10.4625L12.6252 4.0959C12.7571 3.96804 12.9667 3.96804 13.0985 4.0959L13.5652 4.56923C13.6283 4.63182 13.6638 4.71702 13.6638 4.8059C13.6638 4.89478 13.6283 4.97997 13.5652 5.04256Z" fill="#1A1A18"/>
</svg>
