<svg width="44" height="44" viewBox="0 0 44 44" fill="none" xmlns="http://www.w3.org/2000/svg">
<path d="M32.615 41.6901H11.385C6.36163 41.6901 2.29163 37.6017 2.29163 32.5784V18.9934C2.29163 16.5001 3.83163 13.3651 5.81163 11.8251L15.6933 4.12506C18.6633 1.81506 23.4116 1.70506 26.4916 3.86839L37.8216 11.8067C40.0033 13.3284 41.7083 16.5917 41.7083 19.2501V32.5967C41.7083 37.6017 37.6383 41.6901 32.615 41.6901ZM17.38 6.28839L7.49829 13.9884C6.19663 15.0151 5.04163 17.3434 5.04163 18.9934V32.5784C5.04163 36.0801 7.88329 38.9401 11.385 38.9401H32.615C36.1166 38.9401 38.9583 36.0984 38.9583 32.5967V19.2501C38.9583 17.4901 37.6933 15.0517 36.245 14.0617L24.915 6.12339C22.825 4.65672 19.3783 4.73006 17.38 6.28839Z" fill="#00963F"/>
<path d="M13.7501 31.625C13.4017 31.625 13.0534 31.4966 12.7784 31.2216C12.2467 30.69 12.2467 29.81 12.7784 29.2783L18.6451 23.4116C18.9384 23.1183 19.3234 22.9716 19.7451 23.0083C20.1484 23.045 20.5151 23.265 20.7534 23.6133L22.7517 26.62L29.2601 20.1116C29.7917 19.58 30.6717 19.58 31.2034 20.1116C31.7351 20.6433 31.7351 21.5233 31.2034 22.055L23.5034 29.755C23.2101 30.0483 22.8251 30.195 22.4034 30.1583C22.0001 30.1216 21.6334 29.9016 21.3951 29.5533L19.3967 26.5466L14.7217 31.2216C14.4467 31.4966 14.0984 31.625 13.7501 31.625Z" fill="#00963F"/>
<path d="M30.25 26.1249C29.4984 26.1249 28.875 25.5016 28.875 24.7499V22.4583H26.5834C25.8317 22.4583 25.2084 21.8349 25.2084 21.0833C25.2084 20.3316 25.8317 19.7083 26.5834 19.7083H30.25C31.0017 19.7083 31.625 20.3316 31.625 21.0833V24.7499C31.625 25.5016 31.0017 26.1249 30.25 26.1249Z" fill="#00963F"/>
</svg>
