<svg width="44" height="44" viewBox="0 0 44 44" fill="none" xmlns="http://www.w3.org/2000/svg">
<path d="M15.7112 29.3699C15.3629 29.3699 15.0146 29.2416 14.7396 28.9666C14.2079 28.4349 14.2079 27.5549 14.7396 27.0233L26.7479 15.015C27.2795 14.4833 28.1595 14.4833 28.6912 15.015C29.2229 15.5466 29.2229 16.4266 28.6912 16.9583L16.6829 28.9666C16.4079 29.2416 16.0596 29.3699 15.7112 29.3699Z" fill="#00963F"/>
<path d="M16.4633 20.3684C14.465 20.3684 12.8333 18.7368 12.8333 16.7384C12.8333 14.7401 14.465 13.1084 16.4633 13.1084C18.4617 13.1084 20.0933 14.7401 20.0933 16.7384C20.0933 18.7368 18.4617 20.3684 16.4633 20.3684ZM16.4633 15.8767C15.9867 15.8767 15.5833 16.2618 15.5833 16.7568C15.5833 17.2518 15.9683 17.6367 16.4633 17.6367C16.9583 17.6367 17.3433 17.2518 17.3433 16.7568C17.3433 16.2618 16.94 15.8767 16.4633 15.8767Z" fill="#00963F"/>
<path d="M28.4534 30.8733C26.4551 30.8733 24.8234 29.2416 24.8234 27.2432C24.8234 25.2449 26.4551 23.6133 28.4534 23.6133C30.4517 23.6133 32.0834 25.2449 32.0834 27.2432C32.0834 29.2416 30.4517 30.8733 28.4534 30.8733ZM28.4534 26.3816C27.9767 26.3816 27.5734 26.7666 27.5734 27.2616C27.5734 27.7566 27.9584 28.1416 28.4534 28.1416C28.9484 28.1416 29.3334 27.7566 29.3334 27.2616C29.3334 26.7666 28.9484 26.3816 28.4534 26.3816Z" fill="#00963F"/>
<path d="M22 41.7084C11.1284 41.7084 2.29169 32.8717 2.29169 22.0001C2.29169 11.1284 11.1284 2.29175 22 2.29175C32.8717 2.29175 41.7084 11.1284 41.7084 22.0001C41.7084 32.8717 32.8717 41.7084 22 41.7084ZM22 5.04175C12.65 5.04175 5.04169 12.6501 5.04169 22.0001C5.04169 31.3501 12.65 38.9584 22 38.9584C31.35 38.9584 38.9584 31.3501 38.9584 22.0001C38.9584 12.6501 31.35 5.04175 22 5.04175Z" fill="#00963F"/>
</svg>
