<svg width="44" height="44" viewBox="0 0 44 44" fill="none" xmlns="http://www.w3.org/2000/svg">
<path d="M31.1667 38.9584H12.8334C6.14169 38.9584 2.29169 35.1084 2.29169 28.4167V15.5834C2.29169 8.89175 6.14169 5.04175 12.8334 5.04175H31.1667C37.8584 5.04175 41.7084 8.89175 41.7084 15.5834V28.4167C41.7084 35.1084 37.8584 38.9584 31.1667 38.9584ZM12.8334 7.79175C7.59002 7.79175 5.04169 10.3401 5.04169 15.5834V28.4167C5.04169 33.6601 7.59002 36.2084 12.8334 36.2084H31.1667C36.41 36.2084 38.9584 33.6601 38.9584 28.4167V15.5834C38.9584 10.3401 36.41 7.79175 31.1667 7.79175H12.8334Z" fill="#00963F"/>
<path d="M22 28.875C18.205 28.875 15.125 25.795 15.125 22C15.125 18.205 18.205 15.125 22 15.125C25.795 15.125 28.875 18.205 28.875 22C28.875 25.795 25.795 28.875 22 28.875ZM22 17.875C19.7267 17.875 17.875 19.7267 17.875 22C17.875 24.2733 19.7267 26.125 22 26.125C24.2733 26.125 26.125 24.2733 26.125 22C26.125 19.7267 24.2733 17.875 22 17.875Z" fill="#00963F"/>
<path d="M5.50002 17.8749H3.66669C2.91502 17.8749 2.29169 17.2516 2.29169 16.4999C2.29169 15.7483 2.91502 15.1249 3.66669 15.1249H5.50002C10.23 15.1249 11.4584 13.8966 11.4584 9.16659V7.33325C11.4584 6.58159 12.0817 5.95825 12.8334 5.95825C13.585 5.95825 14.2084 6.58159 14.2084 7.33325V9.16659C14.2084 15.4366 11.77 17.8749 5.50002 17.8749Z" fill="#00963F"/>
<path d="M40.3334 17.8749H38.5C32.23 17.8749 29.7917 15.4366 29.7917 9.16659V7.33325C29.7917 6.58159 30.415 5.95825 31.1667 5.95825C31.9184 5.95825 32.5417 6.58159 32.5417 7.33325V9.16659C32.5417 13.8966 33.77 15.1249 38.5 15.1249H40.3334C41.085 15.1249 41.7084 15.7483 41.7084 16.4999C41.7084 17.2516 41.085 17.8749 40.3334 17.8749Z" fill="#00963F"/>
<path d="M12.8334 38.0417C12.0817 38.0417 11.4584 37.4183 11.4584 36.6667V34.8333C11.4584 30.1033 10.23 28.875 5.50002 28.875H3.66669C2.91502 28.875 2.29169 28.2517 2.29169 27.5C2.29169 26.7483 2.91502 26.125 3.66669 26.125H5.50002C11.77 26.125 14.2084 28.5633 14.2084 34.8333V36.6667C14.2084 37.4183 13.585 38.0417 12.8334 38.0417Z" fill="#00963F"/>
<path d="M31.1667 38.0417C30.415 38.0417 29.7917 37.4183 29.7917 36.6667V34.8333C29.7917 28.5633 32.23 26.125 38.5 26.125H40.3334C41.085 26.125 41.7084 26.7483 41.7084 27.5C41.7084 28.2517 41.085 28.875 40.3334 28.875H38.5C33.77 28.875 32.5417 30.1033 32.5417 34.8333V36.6667C32.5417 37.4183 31.9184 38.0417 31.1667 38.0417Z" fill="#00963F"/>
</svg>
