<svg width="44" height="44" viewBox="0 0 44 44" fill="none" xmlns="http://www.w3.org/2000/svg">
<path d="M40.3333 41.7083H3.66663C2.91496 41.7083 2.29163 41.0849 2.29163 40.3333C2.29163 39.5816 2.91496 38.9583 3.66663 38.9583H40.3333C41.085 38.9583 41.7083 39.5816 41.7083 40.3333C41.7083 41.0849 41.085 41.7083 40.3333 41.7083Z" fill="#00963F"/>
<path d="M38.5 41.7084H5.5C4.74833 41.7084 4.125 41.0851 4.125 40.3334V11.0001C4.125 5.46341 7.29667 2.29175 12.8333 2.29175H31.1667C36.7033 2.29175 39.875 5.46341 39.875 11.0001V40.3334C39.875 41.0851 39.2517 41.7084 38.5 41.7084ZM6.875 38.9584H37.125V11.0001C37.125 6.93008 35.2367 5.04175 31.1667 5.04175H12.8333C8.76333 5.04175 6.875 6.93008 6.875 11.0001V38.9584Z" fill="#00963F"/>
<path d="M18.3334 31.625H12.8334C12.0817 31.625 11.4584 31.0017 11.4584 30.25C11.4584 29.4983 12.0817 28.875 12.8334 28.875H18.3334C19.085 28.875 19.7084 29.4983 19.7084 30.25C19.7084 31.0017 19.085 31.625 18.3334 31.625Z" fill="#00963F"/>
<path d="M31.1666 31.625H25.6666C24.915 31.625 24.2916 31.0017 24.2916 30.25C24.2916 29.4983 24.915 28.875 25.6666 28.875H31.1666C31.9183 28.875 32.5416 29.4983 32.5416 30.25C32.5416 31.0017 31.9183 31.625 31.1666 31.625Z" fill="#00963F"/>
<path d="M18.3334 23.375H12.8334C12.0817 23.375 11.4584 22.7517 11.4584 22C11.4584 21.2483 12.0817 20.625 12.8334 20.625H18.3334C19.085 20.625 19.7084 21.2483 19.7084 22C19.7084 22.7517 19.085 23.375 18.3334 23.375Z" fill="#00963F"/>
<path d="M31.1666 23.375H25.6666C24.915 23.375 24.2916 22.7517 24.2916 22C24.2916 21.2483 24.915 20.625 25.6666 20.625H31.1666C31.9183 20.625 32.5416 21.2483 32.5416 22C32.5416 22.7517 31.9183 23.375 31.1666 23.375Z" fill="#00963F"/>
<path d="M18.3334 15.125H12.8334C12.0817 15.125 11.4584 14.5017 11.4584 13.75C11.4584 12.9983 12.0817 12.375 12.8334 12.375H18.3334C19.085 12.375 19.7084 12.9983 19.7084 13.75C19.7084 14.5017 19.085 15.125 18.3334 15.125Z" fill="#00963F"/>
<path d="M31.1666 15.125H25.6666C24.915 15.125 24.2916 14.5017 24.2916 13.75C24.2916 12.9983 24.915 12.375 25.6666 12.375H31.1666C31.9183 12.375 32.5416 12.9983 32.5416 13.75C32.5416 14.5017 31.9183 15.125 31.1666 15.125Z" fill="#00963F"/>
</svg>
