<svg width="48" height="48" viewBox="0 0 48 48" fill="none" xmlns="http://www.w3.org/2000/svg">
<path d="M33.1182 48C33.6487 48 34.1574 47.7893 34.5325 47.4142L47.4142 34.5324C47.7893 34.1573 48 33.6486 48 33.1182V17.0472C48 15.6217 46.5512 14.6538 45.2343 15.1996L28.463 22.1503C26.8166 22.8327 25.1673 21.1834 25.8497 19.537L32.8004 2.76573C33.3462 1.44882 32.3783 0 30.9528 0H14.8818C14.3513 0 13.8426 0.210715 13.4676 0.585789L0.585784 13.4676C0.210713 13.8427 0 14.3514 0 14.8818V33.1182C0 33.6486 0.210713 34.1573 0.585784 34.5324L13.4676 47.4142C13.8426 47.7893 14.3513 48 14.8818 48H33.1182Z" fill="#00963F"/>
</svg>
