<svg width="48" height="48" viewBox="0 0 48 48" fill="none" xmlns="http://www.w3.org/2000/svg">
<path d="M33.1182 48C33.6487 48 34.1574 47.7893 34.5325 47.4142L47.4142 34.5324C47.7893 34.1573 48 33.6486 48 33.1182V14.8818C48 14.3514 47.7893 13.8427 47.4142 13.4676L34.5325 0.585788C34.1574 0.210714 33.6487 0 33.1182 0H14.8818C14.3513 0 13.8426 0.210715 13.4676 0.585789L0.585784 13.4676C0.210713 13.8427 0 14.3514 0 14.8818V33.1182C0 33.6486 0.210713 34.1573 0.585784 34.5324L13.4676 47.4142C13.8426 47.7893 14.3513 48 14.8818 48H33.1182Z" fill="#00963F"/>
</svg>
