<svg width="49" height="48" viewBox="0 0 49 48" fill="none" xmlns="http://www.w3.org/2000/svg">
<path d="M33.4515 48C33.9819 48 34.4906 47.7893 34.8657 47.4142L47.7475 34.5324C48.1225 34.1573 48.3333 33.6486 48.3333 33.1182V17.0472C48.3333 15.6217 46.8844 14.6538 45.5675 15.1996L28.7963 22.1503C27.1499 22.8327 25.5006 21.1834 26.1829 19.537L33.1337 2.76573C33.6795 1.44882 32.7116 0 31.2861 0H15.215C14.6846 0 14.1759 0.210715 13.8008 0.585789L0.919036 13.4676C0.543965 13.8427 0.333252 14.3514 0.333252 14.8818V33.1182C0.333252 33.6486 0.543965 34.1573 0.919036 34.5324L13.8008 47.4142C14.1759 47.7893 14.6846 48 15.215 48H33.4515Z" fill="white"/>
</svg>
