<svg width="57" height="56" viewBox="0 0 57 56" fill="none" xmlns="http://www.w3.org/2000/svg">
<path d="M23.9229 42.3501H15.0796C14.1229 42.3501 13.3296 41.5568 13.3296 40.6001V28.6534C13.3296 26.2268 15.3129 24.2434 17.7396 24.2434H23.9229C24.8795 24.2434 25.6729 25.0367 25.6729 25.9934V40.5767C25.6729 41.5567 24.8795 42.3501 23.9229 42.3501ZM16.8296 38.8501H22.1729V27.7668H17.7396C17.2496 27.7668 16.8296 28.1633 16.8296 28.6767V38.8501Z" fill="#00963F"/>
<path d="M32.7436 42.35H23.9003C22.9436 42.35 22.1503 41.5567 22.1503 40.6V18.0599C22.1503 15.6333 24.1336 13.6499 26.5602 13.6499H30.1069C32.5336 13.6499 34.5169 15.6333 34.5169 18.0599V40.6C34.4936 41.5567 33.7236 42.35 32.7436 42.35ZM25.6736 38.85H31.0169V18.0599C31.0169 17.5699 30.6203 17.1499 30.1069 17.1499H26.5602C26.0702 17.1499 25.6503 17.5466 25.6503 18.0599V38.85H25.6736Z" fill="#00963F"/>
<path d="M41.5869 42.3502H32.7437C31.787 42.3502 30.9937 41.5568 30.9937 40.6002V29.9834C30.9937 29.0267 31.787 28.2334 32.7437 28.2334H38.927C41.3536 28.2334 43.3369 30.2168 43.3369 32.6434V40.6002C43.3369 41.5568 42.5669 42.3502 41.5869 42.3502ZM34.4937 38.8502H39.8369V32.6434C39.8369 32.1534 39.4403 31.7334 38.927 31.7334H34.4937V38.8502Z" fill="#00963F"/>
<path d="M35.3333 53.0834H21.3333C8.66333 53.0834 3.25 47.6701 3.25 35.0001V21.0001C3.25 8.33008 8.66333 2.91675 21.3333 2.91675H35.3333C48.0033 2.91675 53.4167 8.33008 53.4167 21.0001V35.0001C53.4167 47.6701 48.0033 53.0834 35.3333 53.0834ZM21.3333 6.41675C10.5767 6.41675 6.75 10.2434 6.75 21.0001V35.0001C6.75 45.7567 10.5767 49.5834 21.3333 49.5834H35.3333C46.09 49.5834 49.9167 45.7567 49.9167 35.0001V21.0001C49.9167 10.2434 46.09 6.41675 35.3333 6.41675H21.3333Z" fill="#00963F"/>
</svg>
