<svg width="57" height="56" viewBox="0 0 57 56" fill="none" xmlns="http://www.w3.org/2000/svg">
<path d="M21.7057 27.1134C21.6357 27.1134 21.5891 27.1134 21.5191 27.1134C21.4024 27.0901 21.2391 27.0901 21.0991 27.1134C14.3324 26.9034 9.22241 21.5834 9.22241 15.0267C9.22241 8.35342 14.6591 2.91675 21.3324 2.91675C28.0057 2.91675 33.4424 8.35342 33.4424 15.0267C33.4191 21.5834 28.2857 26.9034 21.7757 27.1134C21.7524 27.1134 21.7291 27.1134 21.7057 27.1134ZM21.3324 6.41675C16.5957 6.41675 12.7224 10.2901 12.7224 15.0267C12.7224 19.6934 16.3624 23.4501 21.0057 23.6134C21.1457 23.5901 21.4491 23.5901 21.7524 23.6134C26.3257 23.4034 29.9191 19.6467 29.9424 15.0267C29.9424 10.2901 26.0691 6.41675 21.3324 6.41675Z" fill="#00963F"/>
<path d="M38.9258 27.4166C38.8558 27.4166 38.7858 27.4166 38.7158 27.3933C37.7591 27.4866 36.7791 26.8099 36.6858 25.8533C36.5924 24.8966 37.1758 24.0333 38.1325 23.9166C38.4125 23.8933 38.7158 23.8933 38.9724 23.8933C42.3791 23.7066 45.0391 20.9066 45.0391 17.4766C45.0391 13.9299 42.1691 11.0599 38.6224 11.0599C37.6658 11.0833 36.8724 10.2899 36.8724 9.33325C36.8724 8.37659 37.6658 7.58325 38.6224 7.58325C44.0824 7.58325 48.5391 12.0399 48.5391 17.4999C48.5391 22.8666 44.3391 27.2066 38.9958 27.4166C38.9724 27.4166 38.9491 27.4166 38.9258 27.4166Z" fill="#00963F"/>
<path d="M21.7291 52.6166C17.1558 52.6166 12.5591 51.4499 9.08246 49.1166C5.83913 46.9699 4.0658 44.0299 4.0658 40.8333C4.0658 37.6366 5.83913 34.6733 9.08246 32.5033C16.0825 27.8599 27.4225 27.8599 34.3758 32.5033C37.5958 34.6499 39.3925 37.5899 39.3925 40.7866C39.3925 43.9832 37.6191 46.9466 34.3758 49.1166C30.8758 51.4499 26.3025 52.6166 21.7291 52.6166ZM11.0191 35.4433C8.77913 36.9366 7.5658 38.8499 7.5658 40.8566C7.5658 42.8399 8.80246 44.7532 11.0191 46.2232C16.8291 50.1199 26.6291 50.1199 32.4391 46.2232C34.6791 44.7299 35.8925 42.8166 35.8925 40.8099C35.8925 38.8266 34.6558 36.9132 32.4391 35.4433C26.6291 31.5699 16.8291 31.5699 11.0191 35.4433Z" fill="#00963F"/>
<path d="M43.1257 48.4167C42.3091 48.4167 41.5857 47.8567 41.4224 47.0167C41.2357 46.06 41.8424 45.15 42.7757 44.94C44.2457 44.6367 45.5991 44.0534 46.6491 43.2367C47.9791 42.2334 48.7024 40.9734 48.7024 39.6434C48.7024 38.3134 47.9791 37.0534 46.6724 36.0734C45.6458 35.28 44.3624 34.72 42.8457 34.37C41.9124 34.16 41.3057 33.2267 41.5157 32.27C41.7257 31.3367 42.6591 30.73 43.6157 30.94C45.6224 31.3834 47.3724 32.1767 48.7958 33.2734C50.9658 34.9067 52.2024 37.2167 52.2024 39.6434C52.2024 42.07 50.9424 44.38 48.7724 46.0367C47.3257 47.1567 45.5057 47.9734 43.4991 48.37C43.3591 48.4167 43.2424 48.4167 43.1257 48.4167Z" fill="#00963F"/>
</svg>
