<svg width="56" height="56" viewBox="0 0 56 56" fill="none" xmlns="http://www.w3.org/2000/svg">
<path d="M51.3334 25.0833H4.66669C3.71002 25.0833 2.91669 24.2899 2.91669 23.3333C2.91669 22.3766 3.71002 21.5833 4.66669 21.5833H51.3334C52.29 21.5833 53.0834 22.3766 53.0834 23.3333C53.0834 24.2899 52.29 25.0833 51.3334 25.0833Z" fill="#00963F"/>
<path d="M26.9505 49.5833H15.0272C5.74056 49.5833 2.89386 46.7833 2.89386 37.59V18.41C2.89386 11.06 4.45717 6.97662 12.7872 6.48662C13.4872 6.46328 14.2339 6.43994 15.0272 6.43994H40.9505C50.2372 6.43994 53.0839 9.23994 53.0839 18.4333V28.7233C53.0839 29.68 52.2906 30.4733 51.3339 30.4733C50.3772 30.4733 49.5839 29.68 49.5839 28.7233V18.4333C49.5839 11.2233 48.3005 9.93994 40.9505 9.93994H15.0272C14.2806 9.93994 13.6039 9.96328 12.9505 9.98662C7.88719 10.29 6.39386 11.4333 6.39386 18.4333V37.6133C6.39386 44.8233 7.67722 46.1066 15.0272 46.1066H26.9505C27.9072 46.1066 28.7005 46.8999 28.7005 47.8566C28.7005 48.8133 27.9305 49.5833 26.9505 49.5833Z" fill="#00963F"/>
<path d="M23.3333 39.0833H14C13.0433 39.0833 12.25 38.2899 12.25 37.3333C12.25 36.3766 13.0433 35.5833 14 35.5833H23.3333C24.29 35.5833 25.0833 36.3766 25.0833 37.3333C25.0833 38.2899 24.29 39.0833 23.3333 39.0833Z" fill="#00963F"/>
<path d="M42 53.0834C38.1267 53.0834 34.4867 51.0301 32.5267 47.6934C31.4767 46.0134 30.9167 44.0301 30.9167 42.0001C30.9167 35.8867 35.8867 30.9167 42 30.9167C48.1134 30.9167 53.0834 35.8867 53.0834 42.0001C53.0834 44.0301 52.5233 46.0134 51.4733 47.7167C49.5133 51.0301 45.8734 53.0834 42 53.0834ZM42 34.4167C37.8234 34.4167 34.4167 37.8234 34.4167 42.0001C34.4167 43.3767 34.79 44.7301 35.5133 45.8967C36.8666 48.1834 39.3634 49.5834 42 49.5834C44.6367 49.5834 47.1334 48.1834 48.4868 45.9201C49.2101 44.7301 49.5834 43.4001 49.5834 42.0001C49.5834 37.8234 46.1767 34.4167 42 34.4167Z" fill="#00963F"/>
<path d="M40.6698 46.06C40.2264 46.06 39.7832 45.8966 39.4332 45.5466L37.123 43.2366C36.4464 42.56 36.4464 41.44 37.123 40.7633C37.7997 40.0866 38.9197 40.0866 39.5964 40.7633L40.7165 41.8833L44.4497 38.43C45.1497 37.7766 46.2697 37.8233 46.9231 38.5233C47.5764 39.2233 47.5298 40.3433 46.8298 40.9967L41.8598 45.5933C41.5098 45.8966 41.0898 46.06 40.6698 46.06Z" fill="#00963F"/>
</svg>
