<svg width="56" height="56" viewBox="0 0 56 56" fill="none" xmlns="http://www.w3.org/2000/svg">
<path d="M26.6 53.0833H17.7334C7.49002 53.0833 2.91669 48.5099 2.91669 38.2666V29.3999C2.91669 19.1566 7.49002 14.5833 17.7334 14.5833H24.7334C25.69 14.5833 26.4834 15.3766 26.4834 16.3333C26.4834 17.2899 25.69 18.0833 24.7334 18.0833H17.7334C9.38002 18.0833 6.41669 21.0466 6.41669 29.3999V38.2666C6.41669 46.6199 9.38002 49.5833 17.7334 49.5833H26.6C34.9534 49.5833 37.9167 46.6199 37.9167 38.2666V31.2666C37.9167 30.3099 38.71 29.5166 39.6667 29.5166C40.6234 29.5166 41.4167 30.3099 41.4167 31.2666V38.2666C41.4167 48.5099 36.8433 53.0833 26.6 53.0833Z" fill="#00963F"/>
<path d="M39.6667 33.0166H32.2C25.6433 33.0166 22.9833 30.3566 22.9833 23.7999V16.3332C22.9833 15.6332 23.4033 14.9799 24.0567 14.7232C24.71 14.4432 25.4567 14.6066 25.97 15.0966L40.9033 30.0299C41.3933 30.5199 41.5567 31.2899 41.2767 31.9432C41.02 32.5966 40.3667 33.0166 39.6667 33.0166ZM26.4833 20.5566V23.7999C26.4833 28.4432 27.5567 29.5166 32.2 29.5166H35.4433L26.4833 20.5566Z" fill="#00963F"/>
<path d="M36.4 6.41675H27.0667C26.11 6.41675 25.3167 5.62341 25.3167 4.66675C25.3167 3.71008 26.11 2.91675 27.0667 2.91675H36.4C37.3567 2.91675 38.15 3.71008 38.15 4.66675C38.15 5.62341 37.3567 6.41675 36.4 6.41675Z" fill="#00963F"/>
<path d="M16.3333 13.4167C15.3766 13.4167 14.5833 12.6234 14.5833 11.6667C14.5833 6.83675 18.5033 2.91675 23.3333 2.91675H29.4466C30.4033 2.91675 31.1966 3.71008 31.1966 4.66675C31.1966 5.62341 30.4033 6.41675 29.4466 6.41675H23.3333C20.44 6.41675 18.0833 8.77341 18.0833 11.6667C18.0833 12.6234 17.29 13.4167 16.3333 13.4167Z" fill="#00963F"/>
<path d="M44.7767 41.4167C43.82 41.4167 43.0267 40.6234 43.0267 39.6667C43.0267 38.7101 43.82 37.9167 44.7767 37.9167C47.4367 37.9167 49.5833 35.7467 49.5833 33.1101V18.6667C49.5833 17.7101 50.3767 16.9167 51.3333 16.9167C52.29 16.9167 53.0833 17.7101 53.0833 18.6667V33.1101C53.0833 37.6834 49.35 41.4167 44.7767 41.4167Z" fill="#00963F"/>
<path d="M51.3333 20.4167H44.3333C38.1266 20.4167 35.5833 17.8734 35.5833 11.6667V4.66672C35.5833 3.96672 36.0033 3.31339 36.6566 3.05672C37.31 2.77672 38.0566 2.94006 38.57 3.43006L52.57 17.4301C53.06 17.9201 53.2233 18.6901 52.9433 19.3434C52.6866 19.9967 52.0333 20.4167 51.3333 20.4167ZM39.0833 8.89005V11.6667C39.0833 15.9367 40.0633 16.9167 44.3333 16.9167H47.11L39.0833 8.89005Z" fill="#00963F"/>
</svg>
