<svg width="57" height="56" viewBox="0 0 57 56" fill="none" xmlns="http://www.w3.org/2000/svg">
<path d="M41.6399 41.9301H15.6933C6.40659 41.9301 3.58325 39.1067 3.58325 29.8201V15.0267C3.58325 5.74008 6.40659 2.91675 15.6933 2.91675H41.6166C50.9032 2.91675 53.7266 5.74008 53.7266 15.0267V29.7967C53.7499 39.1067 50.9266 41.9301 41.6399 41.9301ZM15.6933 6.41675C8.36658 6.41675 7.08325 7.70008 7.08325 15.0267V29.7967C7.08325 37.1234 8.36658 38.4067 15.6933 38.4067H41.6166C48.9432 38.4067 50.2266 37.1234 50.2266 29.7967V15.0267C50.2266 7.70008 48.9432 6.41675 41.6166 6.41675H15.6933Z" fill="#00963F"/>
<path d="M28.6666 53.0833C27.71 53.0833 26.9166 52.2899 26.9166 51.3333V40.1799C26.9166 39.2233 27.71 38.4299 28.6666 38.4299C29.6233 38.4299 30.4166 39.2233 30.4166 40.1799V51.3333C30.4166 52.2899 29.6233 53.0833 28.6666 53.0833Z" fill="#00963F"/>
<path d="M51.9999 32.0833H5.33325C4.37659 32.0833 3.58325 31.2899 3.58325 30.3333C3.58325 29.3766 4.37659 28.5833 5.33325 28.5833H51.9999C52.9566 28.5833 53.7499 29.3766 53.7499 30.3333C53.7499 31.2899 52.9566 32.0833 51.9999 32.0833Z" fill="#00963F"/>
<path d="M39.1666 53.0833H18.1666C17.21 53.0833 16.4166 52.2899 16.4166 51.3333C16.4166 50.3766 17.21 49.5833 18.1666 49.5833H39.1666C40.1233 49.5833 40.9166 50.3766 40.9166 51.3333C40.9166 52.2899 40.1233 53.0833 39.1666 53.0833Z" fill="#00963F"/>
</svg>
