<svg width="57" height="57" viewBox="0 0 57 57" fill="none" xmlns="http://www.w3.org/2000/svg">
<path d="M45.98 27.9167H38C37.0433 27.9167 36.25 27.1234 36.25 26.1667V9.85674C36.25 8.13008 36.9267 6.52008 38.14 5.30675C39.3533 4.09342 40.9633 3.41675 42.69 3.41675H42.7133C45.63 3.44008 48.3833 4.58341 50.4833 6.66008C52.5833 8.78341 53.7267 11.5834 53.7267 14.5001V20.1467C53.75 24.7901 50.6233 27.9167 45.98 27.9167ZM39.75 24.4167H45.98C48.6867 24.4167 50.25 22.8534 50.25 20.1467V14.5001C50.25 12.4934 49.4567 10.5801 48.0333 9.13342C46.61 7.73342 44.6967 6.94008 42.7133 6.91675C42.7133 6.91675 42.7133 6.91675 42.69 6.91675C41.92 6.91675 41.1733 7.22008 40.6133 7.78008C40.0533 8.34008 39.75 9.06341 39.75 9.85674V24.4167Z" fill="#00963F"/>
<path d="M21.6666 54.9368C20.5699 54.9368 19.5433 54.5167 18.7733 53.7234L14.8999 49.8267C14.6899 49.6167 14.3633 49.5934 14.1299 49.7801L10.1166 52.7668C8.87992 53.7001 7.24659 53.8634 5.84659 53.1634C4.44659 52.4634 3.58325 51.0634 3.58325 49.5001V14.5001C3.58325 7.45341 7.61992 3.41675 14.6666 3.41675H42.6666C43.6232 3.41675 44.4166 4.21008 44.4166 5.16675C44.4166 6.12341 43.6232 6.91675 42.6666 6.91675C41.0566 6.91675 39.7499 8.22341 39.7499 9.83341V49.5001C39.7499 51.0634 38.8866 52.4634 37.4866 53.1634C36.0866 53.8634 34.4533 53.7234 33.2166 52.7901L29.2266 49.8034C28.9932 49.6167 28.6666 49.6634 28.4799 49.8501L24.5599 53.7701C23.7899 54.5168 22.7633 54.9368 21.6666 54.9368ZM14.4566 46.1634C15.5299 46.1634 16.5799 46.5601 17.3733 47.3767L21.2466 51.2734C21.3866 51.4134 21.5733 51.4368 21.6666 51.4368C21.7599 51.4368 21.9466 51.4134 22.0866 51.2734L26.0066 47.3534C27.4533 45.9067 29.7399 45.7667 31.3499 47.0034L35.3166 49.9667C35.5733 50.1534 35.8066 50.0834 35.9232 50.0134C36.0399 49.9434 36.2499 49.8034 36.2499 49.5001V9.83341C36.2499 8.78341 36.5066 7.78008 36.9499 6.91675H14.6666C9.48659 6.91675 7.08325 9.32008 7.08325 14.5001V49.5001C7.08325 49.8267 7.29325 49.9668 7.40992 50.0368C7.54992 50.1068 7.78325 50.1534 8.01659 49.9667L12.0066 46.9801C12.7299 46.4434 13.5933 46.1634 14.4566 46.1634Z" fill="#00963F"/>
<path d="M28.6666 32.6067H21.6666C20.71 32.6067 19.9166 31.8134 19.9166 30.8567C19.9166 29.9 20.71 29.1067 21.6666 29.1067H28.6666C29.6233 29.1067 30.4166 29.9 30.4166 30.8567C30.4166 31.8134 29.6233 32.6067 28.6666 32.6067Z" fill="#00963F"/>
<path d="M28.6666 23.2734H21.6666C20.71 23.2734 19.9166 22.4801 19.9166 21.5234C19.9166 20.5668 20.71 19.7734 21.6666 19.7734H28.6666C29.6233 19.7734 30.4166 20.5668 30.4166 21.5234C30.4166 22.4801 29.6233 23.2734 28.6666 23.2734Z" fill="#00963F"/>
<path d="M14.5971 23.8566C13.3138 23.8566 12.2638 22.8066 12.2638 21.5233C12.2638 20.2399 13.3138 19.1899 14.5971 19.1899C15.8805 19.1899 16.9305 20.2399 16.9305 21.5233C16.9305 22.8066 15.8805 23.8566 14.5971 23.8566Z" fill="#00963F"/>
<path d="M14.5971 33.1901C13.3138 33.1901 12.2638 32.1401 12.2638 30.8568C12.2638 29.5734 13.3138 28.5234 14.5971 28.5234C15.8805 28.5234 16.9305 29.5734 16.9305 30.8568C16.9305 32.1401 15.8805 33.1901 14.5971 33.1901Z" fill="#00963F"/>
</svg>
